<svg width="31" height="30" viewBox="0 0 31 30" fill="none" xmlns="http://www.w3.org/2000/svg">
    <path
        d="M22.3889 8.57143C22.3889 4.78433 19.3046 1.71429 15.5 1.71429C11.6954 1.71429 8.61111 4.78433 8.61111 8.57143C8.61111 12.3585 11.6954 15.4286 15.5 15.4286C19.3046 15.4286 22.3889 12.3585 22.3889 8.57143ZM24.1111 8.57143C24.1111 13.3053 20.2558 17.1429 15.5 17.1429C10.7442 17.1429 6.88889 13.3053 6.88889 8.57143C6.88889 3.83756 10.7442 0 15.5 0C20.2558 0 24.1111 3.83756 24.1111 8.57143Z"
        fill="#FDEAEA" />
    <path
        d="M29.2778 29.1429C29.2778 25.3558 24.4713 22.2857 20.6667 22.2857H10.3333C6.52871 22.2857 1.72222 25.3558 1.72222 29.1429C1.72222 29.6162 1.33669 30 0.861111 30C0.385533 30 0 29.6162 0 29.1429C0 24.409 5.57755 20.5714 10.3333 20.5714H20.6667C25.4225 20.5714 31 24.409 31 29.1429C31 29.6162 30.6145 30 30.1389 30C29.6633 30 29.2778 29.6162 29.2778 29.1429Z"
        fill="#FDEAEA" />
</svg>