<svg width="43" height="50" viewBox="0 0 43 50" fill="none" xmlns="http://www.w3.org/2000/svg">
<path fill-rule="evenodd" clip-rule="evenodd" d="M29.2675 7.98225C31.1117 5.86976 32.3547 2.92748 32.0145 0C29.3571 0.100001 26.142 1.67788 24.2365 3.78788C22.5254 5.66037 21.0316 8.65232 21.4332 11.5223C24.3976 11.7398 27.4234 10.0972 29.2675 7.98225ZM35.9151 26.5627C35.9893 34.1302 42.9233 36.6475 43 36.68C42.9437 36.8575 41.8925 40.2669 39.3476 43.7919C37.1454 46.8369 34.8613 49.8695 31.2626 49.9345C27.7278 49.997 26.5896 47.9497 22.5458 47.9497C18.5046 47.9497 17.2411 49.8693 13.8956 49.9968C10.4222 50.1193 7.77492 46.7024 5.55736 43.6674C1.01995 37.4599 -2.44578 26.1255 2.2093 18.4755C4.52149 14.678 8.65222 12.2696 13.1385 12.2096C16.5479 12.1471 19.7681 14.3825 21.8527 14.3825C23.9372 14.3825 27.8506 11.695 31.9634 12.09C33.6847 12.1575 38.5188 12.7473 41.6214 17.0497C41.3707 17.1972 35.8537 20.2378 35.9151 26.5627Z" fill="#FDEAEA"/>
</svg>
