<svg width="17" height="16" viewBox="0 0 17 16" fill="none" xmlns="http://www.w3.org/2000/svg">
<path d="M6.75033 1.79166C7.21311 0.771095 7.4445 0.260811 7.76534 0.10264C8.04411 -0.0347928 8.37093 -0.0347928 8.6497 0.10264C8.97054 0.260811 9.20193 0.771096 9.66471 1.79167L10.624 3.90723C10.7609 4.20913 10.8294 4.36009 10.9342 4.47594C11.0271 4.57846 11.1401 4.66061 11.2663 4.7172C11.4089 4.78116 11.5736 4.79961 11.9031 4.83652L14.2115 5.09513C15.3252 5.21988 15.882 5.28226 16.1315 5.53852C16.3484 5.76117 16.4494 6.072 16.4048 6.3796C16.3535 6.73361 15.9397 7.11136 15.1121 7.86686L13.3965 9.43296C13.1517 9.65645 13.0293 9.7682 12.9515 9.90375C12.8827 10.0237 12.8395 10.1566 12.8247 10.2941C12.8079 10.4495 12.8413 10.6119 12.908 10.9366L13.3754 13.212C13.6009 14.3096 13.7136 14.8585 13.547 15.175C13.4023 15.4501 13.1379 15.6422 12.8316 15.6948C12.479 15.7555 11.9919 15.4786 11.0176 14.925L8.99802 13.7773C8.70981 13.6136 8.56571 13.5317 8.41275 13.4996C8.2774 13.4712 8.13764 13.4712 8.00229 13.4996C7.84933 13.5317 7.70523 13.6136 7.41702 13.7773L5.39742 14.925C4.42315 15.4786 3.93602 15.7555 3.58349 15.6948C3.27718 15.6422 3.01277 15.4501 2.86802 15.175C2.70143 14.8585 2.81417 14.3096 3.03965 13.212L3.50705 10.9366C3.57375 10.6119 3.6071 10.4495 3.59034 10.2941C3.57551 10.1566 3.53232 10.0237 3.4635 9.90375C3.38573 9.7682 3.26332 9.65645 3.0185 9.43296L1.30292 7.86686C0.475306 7.11136 0.0614989 6.73361 0.0102128 6.3796C-0.0343491 6.072 0.0666453 5.76117 0.283496 5.53852C0.533069 5.28226 1.08988 5.21988 2.20351 5.09513L4.51197 4.83652C4.8414 4.79961 5.00612 4.78116 5.14871 4.7172C5.2749 4.66061 5.38797 4.57846 5.48079 4.47594C5.58568 4.36009 5.65413 4.20913 5.79103 3.90723L6.75033 1.79166Z" fill="#69A230"/>
</svg>
