<svg width="15" height="15" viewBox="0 0 15 15" fill="none" xmlns="http://www.w3.org/2000/svg">
<path d="M11.686 10.8929C11.686 11.2874 11.3737 11.6071 10.9884 11.6071C10.603 11.6071 10.2907 11.2874 10.2907 10.8929C10.2907 10.4984 10.603 10.1786 10.9884 10.1786C11.3737 10.1786 11.686 10.4984 11.686 10.8929Z" fill="#FDEAEA"/>
<path d="M11.686 8.03571C11.686 8.43021 11.3737 8.75 10.9884 8.75C10.603 8.75 10.2907 8.43021 10.2907 8.03571C10.2907 7.64121 10.603 7.32143 10.9884 7.32143C11.3737 7.32143 11.686 7.64121 11.686 8.03571Z" fill="#FDEAEA"/>
<path d="M8.19767 10.8929C8.19767 11.2874 7.88532 11.6071 7.5 11.6071C7.11467 11.6071 6.80232 11.2874 6.80232 10.8929C6.80232 10.4984 7.11467 10.1786 7.5 10.1786C7.88532 10.1786 8.19767 10.4984 8.19767 10.8929Z" fill="#FDEAEA"/>
<path d="M8.19767 8.03571C8.19767 8.43021 7.88532 8.75 7.5 8.75C7.11467 8.75 6.80232 8.43021 6.80232 8.03571C6.80232 7.64121 7.11467 7.32143 7.5 7.32143C7.88532 7.32143 8.19767 7.64121 8.19767 8.03571Z" fill="#FDEAEA"/>
<path d="M4.7093 10.8929C4.7093 11.2874 4.39694 11.6071 4.01163 11.6071C3.62631 11.6071 3.31395 11.2874 3.31395 10.8929C3.31395 10.4984 3.62631 10.1786 4.01163 10.1786C4.39694 10.1786 4.7093 10.4984 4.7093 10.8929Z" fill="#FDEAEA"/>
<path d="M6.06531 1.07143C5.50564 1.07142 4.99677 1.07142 4.53488 1.08051V0.535714C4.53488 0.239847 4.30061 0 4.01163 0C3.72264 0 3.48837 0.239847 3.48837 0.535714V1.12649C3.30701 1.14065 3.13527 1.15844 2.97277 1.18081C2.16758 1.29164 1.51347 1.52325 0.995208 2.04034L0.97064 2.06518C0.44853 2.59972 0.216812 3.27754 0.106839 4.11498C-1.96412e-05 4.9287 -1.08623e-05 5.96846 2.25155e-07 7.28115L2.25228e-07 8.79027C-1.08599e-05 10.103 -1.96412e-05 11.1427 0.106839 11.9565C0.21681 12.7939 0.448523 13.4717 0.97064 14.0062C1.49275 14.5408 2.1548 14.778 2.97277 14.8906C3.76756 15 4.78311 15 6.06525 15H8.93471C10.2168 15 11.2324 15 12.0272 14.8906C12.8452 14.778 13.5072 14.5408 14.0293 14.0062C14.5515 13.4717 14.7832 12.7939 14.8932 11.9565C15 11.1427 15 10.103 15 8.79039V7.28104C15 5.9684 15 4.92868 14.8932 4.11498C14.7849 3.29062 14.5587 2.62094 14.0536 2.09033L14.0293 2.06516C13.5072 1.53061 12.8452 1.2934 12.0272 1.18081C11.8647 1.15844 11.693 1.14065 11.5116 1.12649V0.535714C11.5116 0.239847 11.2774 0 10.9884 0C10.6994 0 10.4651 0.239847 10.4651 0.535714V1.08051C10.0032 1.07142 9.49434 1.07142 8.93466 1.07143H6.06531ZM13.8965 4.64286H1.10349C1.11466 4.50758 1.12803 4.37946 1.14401 4.25776C1.23838 3.53913 1.41536 3.12509 1.71062 2.8228C2.00588 2.5205 2.4103 2.33929 3.11223 2.24268C3.8292 2.14399 4.77432 2.14286 6.10466 2.14286H8.89535C10.2257 2.14286 11.1708 2.14399 11.8878 2.24268C12.5897 2.33929 12.9941 2.52052 13.2893 2.8228C13.5846 3.12509 13.7616 3.53913 13.856 4.25776C13.872 4.37946 13.8853 4.50758 13.8965 4.64286ZM13.9444 5.71429C13.9533 6.18052 13.9535 6.71142 13.9535 7.32144V8.74999C13.9535 10.112 13.9524 11.0796 13.856 11.8137C13.7616 12.5323 13.5846 12.9464 13.2893 13.2486C12.9941 13.5509 12.5897 13.7321 11.8878 13.8287C11.1708 13.9274 10.2257 13.9286 8.89535 13.9286H6.10466C4.77432 13.9286 3.8292 13.9274 3.11223 13.8287C2.41031 13.7321 2.00588 13.5509 1.71062 13.2486L1.69686 13.2344C1.40986 12.9333 1.23691 12.5211 1.14401 11.8137C1.04762 11.0796 1.04651 10.112 1.04651 8.74999V7.32144C1.04651 6.71142 1.04673 6.18052 1.05564 5.71429H13.9444Z" fill="#FDEAEA"/>
<path d="M4.01163 8.75C4.39694 8.75 4.7093 8.43021 4.7093 8.03571C4.7093 7.64121 4.39694 7.32143 4.01163 7.32143C3.62631 7.32143 3.31395 7.64121 3.31395 8.03571C3.31395 8.43021 3.62631 8.75 4.01163 8.75Z" fill="#FDEAEA"/>
</svg>
