<svg width="15" height="15" viewBox="0 0 15 15" fill="none" xmlns="http://www.w3.org/2000/svg">
<path d="M14.7017 13.2614C15.0994 13.6591 15.0994 14.304 14.7017 14.7017C14.304 15.0994 13.6591 15.0994 13.2614 14.7017L0.298304 1.73864C-0.0994346 1.3409 -0.0994348 0.696043 0.298304 0.298304C0.696043 -0.0994347 1.3409 -0.0994347 1.73864 0.298304L14.7017 13.2614Z" fill="#D2C3C3"/>
<path d="M1.73864 14.7017C1.34091 15.0994 0.696043 15.0994 0.298304 14.7017C-0.0994344 14.304 -0.0994343 13.6591 0.298304 13.2614L13.2614 0.298304C13.6591 -0.0994342 14.304 -0.0994344 14.7017 0.298304C15.0994 0.696043 15.0994 1.3409 14.7017 1.73864L1.73864 14.7017Z" fill="#D2C3C3"/>
</svg>
