<svg width="33" height="30" viewBox="0 0 33 30" fill="none" xmlns="http://www.w3.org/2000/svg">
<path fill-rule="evenodd" clip-rule="evenodd" d="M10.7885 24.4568C12.3519 24.4568 13.6151 25.6997 13.6151 27.2284C13.615 28.757 12.3519 30 10.7885 30C9.22507 30 7.96189 28.757 7.96182 27.2284C7.96182 25.6997 9.22502 24.4568 10.7885 24.4568ZM10.7885 25.5C9.81866 25.5 9.02916 26.2719 9.02916 27.2284C9.02922 28.1848 9.8187 28.9568 10.7885 28.9568C11.7582 28.9568 12.5477 28.1848 12.5478 27.2284C12.5478 26.2719 11.7583 25.5 10.7885 25.5Z" fill="#0F0D0D"/>
<path fill-rule="evenodd" clip-rule="evenodd" d="M25.327 24.4568C26.8904 24.4568 28.1536 25.6998 28.1536 27.2284C28.1535 28.757 26.8903 30 25.327 30C23.7636 30 22.4998 28.757 22.4997 27.2284C22.4997 25.6997 23.7635 24.4568 25.327 24.4568ZM25.327 25.5C24.3572 25.5 23.5677 26.2719 23.5677 27.2284C23.5677 28.1848 24.3572 28.9568 25.327 28.9568C26.2967 28.9568 27.0862 28.1848 27.0863 27.2284C27.0863 26.272 26.2968 25.5 25.327 25.5Z" fill="#0F0D0D"/>
<path d="M16.6729 10.1904C17.0893 10.1904 17.4228 10.521 17.4228 10.9241C17.4227 11.3271 17.0892 11.6577 16.6729 11.6577H11.1349C10.7186 11.6577 10.3845 11.3271 10.3844 10.9241C10.3844 10.521 10.7185 10.1904 11.1349 10.1904H16.6729Z" fill="#0F0D0D"/>
<path fill-rule="evenodd" clip-rule="evenodd" d="M0.625319 0C0.651893 8.91044e-07 0.680764 0.00356233 0.706505 0.010376C2.97332 0.613165 4.36098 1.17985 5.21141 1.84265C6.00891 2.46424 6.36573 3.19612 6.47878 4.28101L6.54819 5.09521H29.7767C31.5589 5.09526 32.9999 6.51227 33 8.25562C33 8.94314 32.8637 9.62425 32.5984 10.2606L30.6059 15.0397C29.7462 17.102 27.6998 18.4509 25.4261 18.4509H7.22309L8.338 19.5233C9.32601 20.4733 10.6806 21.0595 12.173 21.0596H30.1734C30.5895 21.0597 30.9231 21.3904 30.9232 21.7932C30.9232 22.1962 30.5896 22.5273 30.1734 22.5275H11.1349C8.78037 22.5275 6.74546 21.184 5.78343 19.2358L5.69357 19.0454L5.6037 18.8342C5.33836 18.1737 5.19223 17.4536 5.19219 16.6986V6.3385C5.19219 5.67157 5.19328 5.09108 5.13394 4.60754C5.07295 4.11078 4.94231 3.65253 4.63629 3.2489C4.33319 2.8492 3.90528 2.56536 3.37077 2.32422C2.84026 2.08489 2.15543 1.86643 1.29216 1.62354L1.28844 1.62231L0.554049 1.4209L0.55095 1.41968L0.440017 1.38062C0.194197 1.27207 0.0270717 1.04297 0.00309871 0.785522L0 0.708618V0.611572C2.92756e-05 0.276049 0.277803 0.00014904 0.625319 0ZM6.69259 6.5625V15.6793C6.69259 15.9396 6.71113 16.1965 6.74775 16.4478L6.82583 16.9836H25.4261C27.0361 16.9836 28.4925 16.0579 29.1551 14.6252L29.1576 14.6204L29.1601 14.6149L29.2121 14.4965L29.2171 14.4855L31.2096 9.70642C31.3775 9.3035 31.4738 8.87569 31.4953 8.44177L31.5002 8.25562C31.5001 7.34757 30.7738 6.60949 29.8647 6.56433H29.8561L29.848 6.56372L29.7922 6.5625H6.69259Z" fill="#0F0D0D"/>
</svg>
