<svg width="25" height="20" viewBox="0 0 25 20" fill="none" xmlns="http://www.w3.org/2000/svg">
<path d="M22.5 5.31244L15.5 10.5625C13.7222 11.8958 11.2778 11.8958 9.5 10.5625L2.49998 5.31252V16.25C2.49998 16.9404 3.05965 17.5 3.75 17.5H21.25C21.9404 17.5 22.5 16.9404 22.5 16.25V5.31244ZM3.75 2.49998C3.52224 2.49998 3.30871 2.56094 3.12481 2.66737C3.16761 2.69214 3.20943 2.71965 3.24998 2.75006L11 8.56249C11.8889 9.22916 13.1111 9.22916 14 8.56249L21.75 2.74999C21.7905 2.7196 21.8323 2.6921 21.8751 2.66734C21.6912 2.56093 21.4777 2.49998 21.25 2.49998H3.75ZM25 16.25C25 18.3211 23.3211 20 21.25 20H3.75C1.67893 20 0 18.3211 0 16.25V3.75C0 1.67893 1.67893 0 3.75 0H21.25C23.3211 0 25 1.67893 25 3.75V16.25Z" fill="#F2E0E0"/>
</svg>
