<svg width="50" height="50" viewBox="0 0 50 50" fill="none" xmlns="http://www.w3.org/2000/svg">
<path fill-rule="evenodd" clip-rule="evenodd" d="M28.4018 49.7705C40.5997 48.111 50 37.6533 50 25C50 11.1929 38.8071 0 25 0C11.1929 0 0 11.1929 0 25C0 37.3544 8.96144 47.6157 20.7386 49.6383V32.5H14.5V25.25H20.7386V19.725C20.7386 13.45 24.3982 10 30.0228 10C32.7 10 35.5 10.475 35.5 10.475V16.65H32.4053C29.3596 16.65 28.4018 18.575 28.4018 20.55V25.25H35.2298L34.1246 32.5H28.4018V49.7705Z" fill="#A51024"/>
<path fill-rule="evenodd" clip-rule="evenodd" d="M28.4018 49.7705C40.5997 48.111 50 37.6533 50 25C50 11.1929 38.8071 0 25 0C11.1929 0 0 11.1929 0 25C0 37.3544 8.96144 47.6157 20.7386 49.6383V32.5H14.5V25.25H20.7386V19.725C20.7386 13.45 24.3982 10 30.0228 10C32.7 10 35.5 10.475 35.5 10.475V16.65H32.4053C29.3596 16.65 28.4018 18.575 28.4018 20.55V25.25H35.2298L34.1246 32.5H28.4018V49.7705Z" fill="url(#paint0_linear_133_82)"/>
<defs>
<linearGradient id="paint0_linear_133_82" x1="0.467286" y1="50.2682" x2="50.2373" y2="0.268737" gradientUnits="userSpaceOnUse">
<stop stop-color="#6D0815"/>
<stop offset="0.75" stop-color="#DB1933"/>
<stop offset="1" stop-color="#FA3A53"/>
</linearGradient>
</defs>
</svg>
