<svg width="50" height="50" viewBox="0 0 50 50" fill="none" xmlns="http://www.w3.org/2000/svg">
<path d="M25 50C26.1787 50 27.3383 49.9184 28.4736 49.7606C40.6366 48.0699 50 37.6284 50 25C50 11.1929 38.8071 0 25 0C11.1929 0 0 11.1929 0 25C0 37.3219 8.91444 47.5618 20.6459 49.6222C22.0599 49.8705 23.5148 50 25 50Z" fill="url(#paint0_linear_194_1738)"/>
<path fill-rule="evenodd" clip-rule="evenodd" d="M35.4207 25.5895L34.3102 32.6457H28.4736V49.7606C27.3383 49.9184 26.1787 50 25 50C24.9895 50 24.979 50 24.9685 50C23.4943 49.9982 22.0499 49.8687 20.6459 49.6222V32.6457H14.2857V25.5895H20.6459V20.2114C20.6459 14.0945 24.3836 10.7143 30.1077 10.7143C32.8473 10.7143 35.7143 11.1911 35.7143 11.1911V17.1984H32.5539C29.4423 17.1984 28.4736 19.0816 28.4736 21.0125V25.5895H35.4207Z" fill="white"/>
<defs>
<linearGradient id="paint0_linear_194_1738" x1="25" y1="0" x2="25" y2="49.8518" gradientUnits="userSpaceOnUse">
<stop stop-color="#18ACFE"/>
<stop offset="1" stop-color="#0163E0"/>
</linearGradient>
</defs>
</svg>
