<svg width="50" height="50" viewBox="0 0 50 50" fill="none" xmlns="http://www.w3.org/2000/svg">
<path d="M50 25.5554C50 23.4998 49.8298 21.9998 49.4614 20.4443H25.5105V29.722H39.5693C39.2859 32.0277 37.7552 35.4999 34.3538 37.8331L34.3061 38.1438L41.8791 43.8932L42.4037 43.9444C47.2222 39.5833 50 33.1665 50 25.5554Z" fill="#4285F4"/>
<path d="M25.5091 50C32.3967 50 38.1787 47.7777 42.4023 43.9442L34.3524 37.833C32.1983 39.3053 29.3071 40.333 25.5091 40.333C18.7633 40.333 13.0378 35.9719 10.9968 29.9441L10.6977 29.969L2.82335 35.9413L2.72037 36.2219C6.91527 44.3885 15.5319 50 25.5091 50Z" fill="#34A853"/>
<path d="M10.9974 29.9449C10.4589 28.3893 10.1472 26.7225 10.1472 25.0004C10.1472 23.278 10.4589 21.6114 10.9691 20.0559L10.9548 19.7244L2.98183 13.6563L2.72098 13.7779C0.992057 17.1669 0 20.9725 0 25.0004C0 29.0281 0.992057 32.8336 2.72098 36.2226L10.9974 29.9449Z" fill="#FBBC05"/>
<path d="M25.5093 9.66668C30.2994 9.66668 33.5306 11.6945 35.3731 13.389L42.5724 6.50005C38.1509 2.47225 32.3969 0 25.5093 0C15.5319 0 6.91529 5.61111 2.72037 13.7778L10.9685 20.0557C13.0379 14.0279 18.7633 9.66668 25.5093 9.66668Z" fill="#EB4335"/>
</svg>
