<svg width="50" height="50" viewBox="0 0 50 50" fill="none" xmlns="http://www.w3.org/2000/svg">
<path d="M36.694 16.153C36.4441 15.5057 36.0614 14.918 35.5705 14.4277C35.0797 13.9373 34.4915 13.5552 33.844 13.306C32.9524 12.9758 32.0107 12.8012 31.06 12.79C29.479 12.718 29.005 12.7 25 12.7C20.995 12.7 20.521 12.718 18.94 12.79C17.9883 12.8009 17.0455 12.9754 16.153 13.306C15.5058 13.5559 14.918 13.9386 14.4277 14.4295C13.9373 14.9203 13.5552 15.5085 13.306 16.156C12.9758 17.0476 12.8012 17.9893 12.79 18.94C12.718 20.521 12.7 20.995 12.7 25C12.7 29.005 12.718 29.479 12.79 31.06C12.8009 32.0117 12.9754 32.9545 13.306 33.847C13.5559 34.4942 13.9386 35.082 14.4295 35.5723C14.9204 36.0627 15.5085 36.4448 16.156 36.694C17.0476 37.0242 17.9893 37.1988 18.94 37.21C20.521 37.282 20.995 37.297 25 37.297C29.005 37.297 29.479 37.282 31.06 37.207C32.0115 37.1971 32.9543 37.0235 33.847 36.694C34.4943 36.4441 35.082 36.0614 35.5723 35.5705C36.0627 35.0796 36.4448 34.4915 36.694 33.844C37.0242 32.9524 37.1988 32.0107 37.21 31.06C37.282 29.479 37.297 29.005 37.297 25C37.297 20.995 37.282 20.521 37.207 18.94C37.1971 17.9885 37.0235 17.0457 36.694 16.153ZM25 32.704C23.4763 32.704 21.9868 32.2522 20.7199 31.4056C19.453 30.5591 18.4655 29.3559 17.8824 27.9482C17.2993 26.5405 17.1468 24.9914 17.444 23.497C17.7413 22.0026 18.475 20.6299 19.5525 19.5524C20.6299 18.475 22.0026 17.7413 23.497 17.444C24.9915 17.1468 26.5405 17.2993 27.9482 17.8824C29.3559 18.4655 30.5591 19.453 31.4056 20.7199C32.2522 21.9868 32.704 23.4763 32.704 25C32.704 27.0432 31.8923 29.0028 30.4476 30.4475C29.0028 31.8923 27.0432 32.704 25 32.704ZM33.007 18.793C32.651 18.793 32.303 18.6874 32.007 18.4896C31.711 18.2919 31.4803 18.0107 31.344 17.6818C31.2078 17.3529 31.1721 16.991 31.2416 16.6418C31.311 16.2927 31.4825 15.9719 31.7342 15.7202C31.9859 15.4685 32.3067 15.297 32.6558 15.2276C33.005 15.1581 33.3669 15.1938 33.6958 15.33C34.0247 15.4663 34.3059 15.697 34.5036 15.993C34.7014 16.289 34.807 16.637 34.807 16.993C34.807 17.4704 34.6174 17.9282 34.2798 18.2658C33.9422 18.6034 33.4844 18.793 33.007 18.793ZM30.001 25C30.001 25.9891 29.7077 26.956 29.1582 27.7784C28.6087 28.6008 27.8276 29.2418 26.9138 29.6203C26 29.9988 24.9945 30.0979 24.0244 29.9049C23.0543 29.7119 22.1632 29.2356 21.4638 28.5362C20.7644 27.8368 20.2881 26.9457 20.0951 25.9756C19.9021 25.0055 20.0012 24 20.3797 23.0862C20.7582 22.1724 21.3992 21.3913 22.2216 20.8418C23.044 20.2923 24.0109 19.999 25 19.999C26.3264 19.999 27.5984 20.5259 28.5362 21.4638C29.4741 22.4016 30.001 23.6736 30.001 25ZM25 0C20.0555 0 15.222 1.46622 11.1108 4.21326C6.99952 6.96029 3.79521 10.8648 1.90302 15.4329C0.0108321 20.0011 -0.484251 25.0277 0.480379 29.8772C1.44501 34.7268 3.82603 39.1813 7.32234 42.6777C10.8187 46.174 15.2732 48.555 20.1227 49.5196C24.9723 50.4842 29.9989 49.9892 34.5671 48.097C39.1352 46.2048 43.0397 43.0005 45.7867 38.8892C48.5338 34.778 50 29.9445 50 25C50 18.3696 47.3661 12.0107 42.6777 7.32233C37.9893 2.63392 31.6304 0 25 0ZM39.91 31.183C39.8846 32.4278 39.6483 33.6592 39.211 34.825C38.8257 35.8212 38.2366 36.726 37.4813 37.4813C36.726 38.2366 35.8212 38.8257 34.825 39.211C33.6602 39.6479 32.4298 39.8843 31.186 39.91C29.584 39.982 29.074 40 25 40C20.926 40 20.416 39.982 18.814 39.91C17.5702 39.8843 16.3398 39.6479 15.175 39.211C14.1788 38.8257 13.274 38.2366 12.5187 37.4813C11.7634 36.726 11.1743 35.8212 10.789 34.825C10.3521 33.6602 10.1157 32.4298 10.09 31.186C10.018 29.584 10 29.074 10 25C10 20.926 10.018 20.416 10.09 18.814C10.1148 17.5704 10.3501 16.34 10.786 15.175C11.1713 14.1779 11.7607 13.2724 12.5166 12.5166C13.2724 11.7607 14.1779 11.1713 15.175 10.786C16.34 10.3501 17.5704 10.1148 18.814 10.09C20.416 10.018 20.926 10 25 10C29.074 10 29.584 10.018 31.186 10.09C32.4296 10.1148 33.66 10.3501 34.825 10.786C35.8215 11.1716 36.7265 11.7612 37.4818 12.517C38.2371 13.2729 38.8261 14.1782 39.211 15.175C39.6479 16.3398 39.8843 17.5702 39.91 18.814C39.982 20.416 40 20.926 40 25C40 29.074 39.982 29.581 39.91 31.183Z" fill="#DB1933"/>
<path d="M36.694 16.153C36.4441 15.5057 36.0614 14.918 35.5705 14.4277C35.0797 13.9373 34.4915 13.5552 33.844 13.306C32.9524 12.9758 32.0107 12.8012 31.06 12.79C29.479 12.718 29.005 12.7 25 12.7C20.995 12.7 20.521 12.718 18.94 12.79C17.9883 12.8009 17.0455 12.9754 16.153 13.306C15.5058 13.5559 14.918 13.9386 14.4277 14.4295C13.9373 14.9203 13.5552 15.5085 13.306 16.156C12.9758 17.0476 12.8012 17.9893 12.79 18.94C12.718 20.521 12.7 20.995 12.7 25C12.7 29.005 12.718 29.479 12.79 31.06C12.8009 32.0117 12.9754 32.9545 13.306 33.847C13.5559 34.4942 13.9386 35.082 14.4295 35.5723C14.9204 36.0627 15.5085 36.4448 16.156 36.694C17.0476 37.0242 17.9893 37.1988 18.94 37.21C20.521 37.282 20.995 37.297 25 37.297C29.005 37.297 29.479 37.282 31.06 37.207C32.0115 37.1971 32.9543 37.0235 33.847 36.694C34.4943 36.4441 35.082 36.0614 35.5723 35.5705C36.0627 35.0796 36.4448 34.4915 36.694 33.844C37.0242 32.9524 37.1988 32.0107 37.21 31.06C37.282 29.479 37.297 29.005 37.297 25C37.297 20.995 37.282 20.521 37.207 18.94C37.1971 17.9885 37.0235 17.0457 36.694 16.153ZM25 32.704C23.4763 32.704 21.9868 32.2522 20.7199 31.4056C19.453 30.5591 18.4655 29.3559 17.8824 27.9482C17.2993 26.5405 17.1468 24.9914 17.444 23.497C17.7413 22.0026 18.475 20.6299 19.5525 19.5524C20.6299 18.475 22.0026 17.7413 23.497 17.444C24.9915 17.1468 26.5405 17.2993 27.9482 17.8824C29.3559 18.4655 30.5591 19.453 31.4056 20.7199C32.2522 21.9868 32.704 23.4763 32.704 25C32.704 27.0432 31.8923 29.0028 30.4476 30.4475C29.0028 31.8923 27.0432 32.704 25 32.704ZM33.007 18.793C32.651 18.793 32.303 18.6874 32.007 18.4896C31.711 18.2919 31.4803 18.0107 31.344 17.6818C31.2078 17.3529 31.1721 16.991 31.2416 16.6418C31.311 16.2927 31.4825 15.9719 31.7342 15.7202C31.9859 15.4685 32.3067 15.297 32.6558 15.2276C33.005 15.1581 33.3669 15.1938 33.6958 15.33C34.0247 15.4663 34.3059 15.697 34.5036 15.993C34.7014 16.289 34.807 16.637 34.807 16.993C34.807 17.4704 34.6174 17.9282 34.2798 18.2658C33.9422 18.6034 33.4844 18.793 33.007 18.793ZM30.001 25C30.001 25.9891 29.7077 26.956 29.1582 27.7784C28.6087 28.6008 27.8276 29.2418 26.9138 29.6203C26 29.9988 24.9945 30.0979 24.0244 29.9049C23.0543 29.7119 22.1632 29.2356 21.4638 28.5362C20.7644 27.8368 20.2881 26.9457 20.0951 25.9756C19.9021 25.0055 20.0012 24 20.3797 23.0862C20.7582 22.1724 21.3992 21.3913 22.2216 20.8418C23.044 20.2923 24.0109 19.999 25 19.999C26.3264 19.999 27.5984 20.5259 28.5362 21.4638C29.4741 22.4016 30.001 23.6736 30.001 25ZM25 0C20.0555 0 15.222 1.46622 11.1108 4.21326C6.99952 6.96029 3.79521 10.8648 1.90302 15.4329C0.0108321 20.0011 -0.484251 25.0277 0.480379 29.8772C1.44501 34.7268 3.82603 39.1813 7.32234 42.6777C10.8187 46.174 15.2732 48.555 20.1227 49.5196C24.9723 50.4842 29.9989 49.9892 34.5671 48.097C39.1352 46.2048 43.0397 43.0005 45.7867 38.8892C48.5338 34.778 50 29.9445 50 25C50 18.3696 47.3661 12.0107 42.6777 7.32233C37.9893 2.63392 31.6304 0 25 0ZM39.91 31.183C39.8846 32.4278 39.6483 33.6592 39.211 34.825C38.8257 35.8212 38.2366 36.726 37.4813 37.4813C36.726 38.2366 35.8212 38.8257 34.825 39.211C33.6602 39.6479 32.4298 39.8843 31.186 39.91C29.584 39.982 29.074 40 25 40C20.926 40 20.416 39.982 18.814 39.91C17.5702 39.8843 16.3398 39.6479 15.175 39.211C14.1788 38.8257 13.274 38.2366 12.5187 37.4813C11.7634 36.726 11.1743 35.8212 10.789 34.825C10.3521 33.6602 10.1157 32.4298 10.09 31.186C10.018 29.584 10 29.074 10 25C10 20.926 10.018 20.416 10.09 18.814C10.1148 17.5704 10.3501 16.34 10.786 15.175C11.1713 14.1779 11.7607 13.2724 12.5166 12.5166C13.2724 11.7607 14.1779 11.1713 15.175 10.786C16.34 10.3501 17.5704 10.1148 18.814 10.09C20.416 10.018 20.926 10 25 10C29.074 10 29.584 10.018 31.186 10.09C32.4296 10.1148 33.66 10.3501 34.825 10.786C35.8215 11.1716 36.7265 11.7612 37.4818 12.517C38.2371 13.2729 38.8261 14.1782 39.211 15.175C39.6479 16.3398 39.8843 17.5702 39.91 18.814C39.982 20.416 40 20.926 40 25C40 29.074 39.982 29.581 39.91 31.183Z" fill="url(#paint0_linear_133_34)"/>
<defs>
<linearGradient id="paint0_linear_133_34" x1="0.467286" y1="50.5" x2="50.4673" y2="0.500003" gradientUnits="userSpaceOnUse">
<stop stop-color="#6D0815"/>
<stop offset="0.75" stop-color="#DB1933"/>
<stop offset="1" stop-color="#FA3A53"/>
</linearGradient>
</defs>
</svg>
