<svg width="16" height="20" viewBox="0 0 16 20" fill="none" xmlns="http://www.w3.org/2000/svg">
<path fill-rule="evenodd" clip-rule="evenodd" d="M8 4.5455C6.03632 4.5455 4.44444 6.17356 4.44444 8.18189C4.44444 10.1902 6.03632 11.8183 8 11.8183C9.96364 11.8183 11.5556 10.1902 11.5556 8.18189C11.5556 6.17356 9.96364 4.5455 8 4.5455ZM8 6.36369C7.01813 6.36369 6.22222 7.17773 6.22222 8.18189C6.22222 9.18608 7.01813 10.0001 8 10.0001C8.98187 10.0001 9.77778 9.18608 9.77778 8.18189C9.77778 7.17773 8.98187 6.36369 8 6.36369Z" fill="#EFDDDD"/>
<path fill-rule="evenodd" clip-rule="evenodd" d="M7.1912 19.6327C7.29413 19.705 7.37609 19.7607 7.43342 19.7991L7.52773 19.8613C7.81627 20.046 8.1832 20.0464 8.47173 19.8616L8.56667 19.7991C8.62391 19.7607 8.70587 19.705 8.8088 19.6327C9.01467 19.4881 9.30533 19.2766 9.65253 19.0039C10.3454 18.4596 11.2712 17.6658 12.1997 16.6671C14.0317 14.6966 16 11.7933 16 8.34717C16 6.13988 15.1619 4.01898 13.6639 2.45209C12.1652 0.884517 10.1283 0 8 0C5.87174 0 3.8348 0.884517 2.33612 2.45209C0.838115 4.01898 0 6.13988 0 8.34717C0 11.7933 1.9683 14.6966 3.80028 16.6671C4.72883 17.6658 5.65454 18.4596 6.34747 19.0039C6.69467 19.2766 6.98533 19.4881 7.1912 19.6327ZM8 1.8182C6.35627 1.8182 4.77576 2.501 3.60724 3.72323C2.43807 4.94616 1.77778 6.60908 1.77778 8.34717C1.77778 11.0916 3.36503 13.5603 5.08861 15.4141C5.93784 16.3276 6.78987 17.0589 7.43031 17.5619C7.64853 17.7333 7.84133 17.8775 8 17.9927C8.15867 17.8775 8.35147 17.7333 8.56969 17.5619C9.21013 17.0589 10.0621 16.3276 10.9114 15.4141C12.6349 13.5603 14.2222 11.0916 14.2222 8.34717C14.2222 6.60908 13.562 4.94616 12.3927 3.72323C11.2243 2.501 9.64373 1.8182 8 1.8182Z" fill="#EFDDDD"/>
</svg>
