<svg width="350" height="166" viewBox="0 0 350 166" fill="none" xmlns="http://www.w3.org/2000/svg">
<path d="M0 13.1294L41.5523 11.8308C54.4412 11.8308 64.204 15.1493 70.8409 21.7861C77.5739 28.4229 80.9404 38.33 80.9404 51.5075C80.9404 64.5888 77.4296 76.5639 70.408 87.4329C63.3865 98.3019 53.8641 105.468 41.8408 108.93C34.9155 108.93 27.1725 107.103 18.612 103.448C16.9768 105.949 15.8707 108.113 15.2935 109.94L12.2637 109.219C14.5722 98.7347 15.7264 83.345 15.7264 63.0498C15.7264 42.7546 15.1974 28.0863 14.1393 19.0448C9.5224 17.5058 4.80929 16.7363 0 16.7363V13.1294ZM62.0398 30.5871C59.9238 26.3549 56.8939 23.0846 52.9503 20.7761C49.1029 18.3715 44.8707 17.1692 40.2538 17.1692C35.6368 17.1692 31.597 17.7944 28.1343 19.0448C27.2687 28.0863 26.8358 40.8309 26.8358 57.2786C26.8358 73.6302 27.0763 86.0382 27.5572 94.5025C32.7513 97.1958 38.6667 98.5424 45.3035 98.5424C51.9403 98.5424 57.0863 96.9072 60.7413 93.6369C65.6468 84.6916 68.0996 73.6783 68.0996 60.597C68.0996 48.67 66.0797 38.6667 62.0398 30.5871Z" fill="url(#paint0_linear_181_1091)"/>
<path d="M110.826 67.2339V79.3533C110.826 89.7413 111.163 97.4362 111.836 102.438C114.529 103.015 117.559 103.929 120.926 105.179L120.637 107.92C115.251 107.151 110.153 106.766 105.344 106.766C100.534 106.766 95.6771 107.055 90.7716 107.632L90.3388 104.891C93.2243 103.64 96.0618 102.678 98.8512 102.005C99.7169 95.4644 100.15 87.9138 100.15 79.3533V67.2339C100.15 59.4428 99.765 51.6518 98.9955 43.8607C96.4946 43.0912 93.8976 42.7065 91.2044 42.7065V39.6766C98.6107 39.1957 105.44 38.2339 111.692 36.7911L112.702 37.3682C111.452 44.7745 110.826 54.7297 110.826 67.2339ZM113.423 17.3134C112.75 18.5639 111.548 20.1509 109.816 22.0746C108.181 23.9984 106.787 25.345 105.632 26.1144C104.478 25.345 103.035 23.9984 101.304 22.0746C99.6688 20.1509 98.5145 18.5639 97.8412 17.3134C98.4184 16.1592 99.5245 14.8607 101.16 13.4179C102.795 11.8789 104.286 10.7728 105.632 10.0995C106.883 10.869 108.326 12.0232 109.961 13.5622C111.596 15.005 112.75 16.2554 113.423 17.3134Z" fill="url(#paint1_linear_181_1091)"/>
<path d="M128.444 81.3732C128.444 71.3699 131.137 62.2322 136.524 53.9602C141.91 45.5921 149.124 39.869 158.166 36.7911C164.61 36.7911 171.343 37.801 178.365 39.8209C179.711 37.801 180.817 35.2521 181.683 32.1741L184.713 33.0398C182.597 41.6965 181.539 56.9901 181.539 78.9204C181.539 88.7314 181.875 96.4263 182.549 102.005C184.857 102.775 187.454 103.159 190.34 103.159V106.189C184.184 106.478 177.691 107.391 170.862 108.93L169.852 108.353C170.91 101.716 171.439 94.214 171.439 85.8458L170.862 85.7015C167.496 90.5108 163.504 95.1758 158.887 99.6966C154.27 104.217 149.894 107.295 145.758 108.93C140.467 108.93 136.235 105.997 133.061 100.129C129.983 94.2621 128.444 88.01 128.444 81.3732ZM139.986 74.8806C139.986 79.5938 140.804 84.4992 142.439 89.5971C144.17 94.5987 146.623 97.0996 149.797 97.0996C153.164 97.0996 157.252 94.6949 162.061 89.8856C166.87 85.0763 169.996 80.748 171.439 76.9005C171.439 62.5689 171.103 53.335 170.429 49.199C165.331 46.8906 160.378 45.7363 155.569 45.7363C150.855 45.7363 147.248 46.8906 144.748 49.199C141.573 56.5092 139.986 65.0697 139.986 74.8806Z" fill="url(#paint2_linear_181_1091)"/>
<path d="M239.924 64.3483C239.924 74.3516 237.231 83.5374 231.845 91.9055C226.458 100.178 219.244 105.852 210.203 108.93C200.969 108.93 192.553 107.199 184.954 103.736C186.204 92.5788 186.83 74.9287 186.83 50.7861C186.83 26.6435 185.675 10.0033 183.367 0.86567L186.397 0C187.262 3.07795 188.369 5.62687 189.715 7.64677C195.005 6.78109 200.151 5.62687 205.153 4.18408L205.874 6.7811C204.047 8.22388 201.787 9.61858 199.093 10.9652C197.651 18.8524 196.929 35.1559 196.929 59.8757L197.506 60.0199C200.873 55.2106 204.865 50.5456 209.481 46.0249C214.098 41.5042 218.475 38.4262 222.611 36.7911C227.901 36.7911 232.085 39.7247 235.163 45.5921C238.337 51.4594 239.924 57.7115 239.924 64.3483ZM228.382 70.8408C228.382 66.1277 227.516 61.2704 225.785 56.2687C224.15 51.1708 221.745 48.6219 218.571 48.6219C215.204 48.6219 211.117 51.0266 206.307 55.8359C201.498 60.6451 198.372 64.9735 196.929 68.8209C196.929 83.1526 197.266 92.3865 197.939 96.5224C203.037 98.8309 207.942 99.9851 212.656 99.9851C217.465 99.9851 221.12 98.8309 223.621 96.5224C226.795 89.2123 228.382 80.6518 228.382 70.8408Z" fill="url(#paint3_linear_181_1091)"/>
<path d="M267.011 73.5821C267.011 76.3715 267.011 80.7961 267.011 86.8558C267.011 92.8193 267.3 98.0133 267.877 102.438C270.57 103.015 273.6 103.929 276.967 105.179L276.678 107.92C271.292 107.151 266.194 106.766 261.385 106.766C256.575 106.766 251.718 107.055 246.812 107.632L246.38 104.891C249.265 103.64 252.103 102.678 254.892 102.005C255.758 95.8492 256.239 86.3748 256.335 73.5821L256.623 46.602C256.623 44.1012 256.623 39.6285 256.623 33.1841C256.623 26.6435 256.287 19.9586 255.613 13.1294C253.113 12.3599 250.516 11.9751 247.822 11.9751V8.94528C257.441 8.27197 266.627 6.68491 275.38 4.18408L276.101 6.7811C274.273 8.22388 272.013 9.61858 269.32 10.9652C268.166 17.3134 267.492 29.1924 267.3 46.602L267.011 73.5821Z" fill="url(#paint4_linear_181_1091)"/>
<path d="M314.746 108.93C306.378 108.93 299.501 106.141 294.114 100.562C288.728 94.8873 286.035 87.481 286.035 78.3433C286.035 69.2057 288.776 60.597 294.259 52.5174C299.837 44.3417 307.148 39.0995 316.189 36.7911C325.134 36.7911 331.915 39.3881 336.532 44.5821C341.149 49.7761 343.458 56.942 343.458 66.0796C343.458 75.2173 340.765 83.8259 335.378 91.9055C329.992 99.9851 323.114 105.66 314.746 108.93ZM312.294 45.7363C308.254 45.7363 304.935 46.8906 302.338 49.199C299.164 55.2587 297.577 62.2322 297.577 70.1194C297.577 78.0067 299.357 84.9801 302.915 91.0399C306.474 97.0034 311.236 99.9851 317.199 99.9851C321.239 99.9851 324.605 98.7828 327.298 96.3782C330.376 90.5108 331.915 83.3931 331.915 75.0249C331.915 66.5606 330.28 59.5871 327.01 54.1045C323.836 48.5257 318.93 45.7363 312.294 45.7363Z" fill="url(#paint5_linear_181_1091)"/>
<path d="M317.001 147.266V150.539C317.001 150.903 316.932 151.247 316.794 151.572C316.657 151.886 316.47 152.161 316.234 152.397C315.998 152.633 315.718 152.82 315.393 152.958C315.079 153.095 314.74 153.164 314.376 153.164H313.167C312.803 153.164 312.459 153.095 312.135 152.958C311.82 152.82 311.545 152.633 311.309 152.397C311.073 152.161 310.886 151.886 310.749 151.572C310.611 151.247 310.542 150.903 310.542 150.539V149.905C310.542 149.542 310.611 149.202 310.749 148.888C310.886 148.564 311.073 148.283 311.309 148.047C311.545 147.802 311.82 147.61 312.135 147.472C312.459 147.335 312.803 147.266 313.167 147.266H317.001Z" fill="url(#paint6_linear_181_1091)"/>
<path d="M317.001 147.266V150.539C317.001 150.903 316.932 151.247 316.794 151.572C316.657 151.886 316.47 152.161 316.234 152.397C315.998 152.633 315.718 152.82 315.393 152.958C315.079 153.095 314.74 153.164 314.376 153.164H313.167C312.803 153.164 312.459 153.095 312.135 152.958C311.82 152.82 311.545 152.633 311.309 152.397C311.073 152.161 310.886 151.886 310.749 151.572C310.611 151.247 310.542 150.903 310.542 150.539V149.905C310.542 149.542 310.611 149.202 310.749 148.888C310.886 148.564 311.073 148.283 311.309 148.047C311.545 147.802 311.82 147.61 312.135 147.472C312.459 147.335 312.803 147.266 313.167 147.266H317.001Z" fill="url(#paint7_linear_181_1091)"/>
<path d="M317.001 147.266V150.539C317.001 150.903 316.932 151.247 316.794 151.572C316.657 151.886 316.47 152.161 316.234 152.397C315.998 152.633 315.718 152.82 315.393 152.958C315.079 153.095 314.74 153.164 314.376 153.164H313.167C312.803 153.164 312.459 153.095 312.135 152.958C311.82 152.82 311.545 152.633 311.309 152.397C311.073 152.161 310.886 151.886 310.749 151.572C310.611 151.247 310.542 150.903 310.542 150.539V149.905C310.542 149.542 310.611 149.202 310.749 148.888C310.886 148.564 311.073 148.283 311.309 148.047C311.545 147.802 311.82 147.61 312.135 147.472C312.459 147.335 312.803 147.266 313.167 147.266H317.001Z" fill="url(#paint8_linear_181_1091)"/>
<path d="M317.001 147.266V150.539C317.001 150.903 316.932 151.247 316.794 151.572C316.657 151.886 316.47 152.161 316.234 152.397C315.998 152.633 315.718 152.82 315.393 152.958C315.079 153.095 314.74 153.164 314.376 153.164H313.167C312.803 153.164 312.459 153.095 312.135 152.958C311.82 152.82 311.545 152.633 311.309 152.397C311.073 152.161 310.886 151.886 310.749 151.572C310.611 151.247 310.542 150.903 310.542 150.539V149.905C310.542 149.542 310.611 149.202 310.749 148.888C310.886 148.564 311.073 148.283 311.309 148.047C311.545 147.802 311.82 147.61 312.135 147.472C312.459 147.335 312.803 147.266 313.167 147.266H317.001Z" fill="url(#paint9_linear_181_1091)"/>
<path fill-rule="evenodd" clip-rule="evenodd" d="M337.418 123.543C344.367 123.543 350 129.176 350 136.125V152.902C350 159.851 344.367 165.484 337.418 165.484H242.63C235.681 165.484 230.047 159.851 230.047 152.902V136.125C230.047 129.176 235.681 123.543 242.63 123.543H337.418ZM313.314 139.186C312.705 139.186 312.13 139.304 311.589 139.54C311.048 139.766 310.577 140.08 310.174 140.483C309.771 140.886 309.451 141.358 309.215 141.899C308.989 142.439 308.876 143.014 308.876 143.624V143.771L310.69 144.066V143.521C310.69 143.157 310.759 142.818 310.896 142.503C311.034 142.179 311.221 141.899 311.456 141.663C311.692 141.427 311.968 141.24 312.282 141.103C312.607 140.965 312.951 140.896 313.314 140.896H314.376C314.74 140.896 315.079 140.965 315.393 141.103C315.718 141.24 315.998 141.427 316.234 141.663C316.47 141.899 316.657 142.179 316.794 142.503C316.932 142.818 317.001 143.157 317.001 143.521V145.85H313.167C312.557 145.85 311.982 145.968 311.442 146.204C310.901 146.43 310.429 146.745 310.026 147.148C309.623 147.551 309.304 148.023 309.068 148.564C308.842 149.104 308.729 149.679 308.729 150.289V150.436C308.729 151.046 308.842 151.621 309.068 152.161C309.304 152.702 309.623 153.174 310.026 153.577C310.429 153.98 310.901 154.299 311.442 154.535C311.982 154.761 312.557 154.874 313.167 154.874H313.624C314.361 154.874 315.039 154.712 315.659 154.388C316.278 154.054 316.794 153.616 317.207 153.076L318.21 154.58H318.814V143.624C318.814 143.014 318.696 142.439 318.46 141.899C318.234 141.358 317.92 140.886 317.517 140.483C317.114 140.08 316.642 139.766 316.101 139.54C315.56 139.304 314.985 139.186 314.376 139.186H313.314ZM261.825 133.435V154.58H273.724V152.766H263.727V144.922H271.822V143.108H263.727V135.249H273.724V133.435H261.825ZM276.157 139.481L280.389 147.03L276.157 154.58H278.118L281.347 148.785L284.576 154.58H286.537L282.32 147.03L286.537 139.481H284.576L281.347 145.275L278.118 139.481H276.157ZM291.064 135.853V139.481H288.351V141.206H291.064V150.598C291.064 151.149 291.167 151.665 291.374 152.147C291.59 152.628 291.875 153.051 292.229 153.415C292.593 153.778 293.015 154.063 293.497 154.27C293.988 154.476 294.509 154.58 295.06 154.58H296.711V152.854H295.06C294.755 152.854 294.47 152.8 294.205 152.692C293.939 152.574 293.708 152.417 293.512 152.22C293.315 152.024 293.158 151.798 293.04 151.542C292.932 151.277 292.878 150.992 292.878 150.687V141.206H296.711V139.481H292.878V135.558L291.064 135.853ZM305.249 139.186C304.512 139.186 303.828 139.353 303.199 139.687C302.58 140.011 302.064 140.454 301.651 141.014L300.663 139.481H300.059V154.58H301.872V143.83C301.872 143.467 301.941 143.128 302.079 142.813C302.216 142.489 302.403 142.208 302.639 141.973C302.875 141.737 303.15 141.55 303.465 141.412C303.789 141.275 304.133 141.206 304.497 141.206H306.31V139.186H305.249Z" fill="url(#paint10_linear_181_1091)"/>
<path fill-rule="evenodd" clip-rule="evenodd" d="M337.418 123.543C344.367 123.543 350 129.176 350 136.125V152.902C350 159.851 344.367 165.484 337.418 165.484H242.63C235.681 165.484 230.047 159.851 230.047 152.902V136.125C230.047 129.176 235.681 123.543 242.63 123.543H337.418ZM313.314 139.186C312.705 139.186 312.13 139.304 311.589 139.54C311.048 139.766 310.577 140.08 310.174 140.483C309.771 140.886 309.451 141.358 309.215 141.899C308.989 142.439 308.876 143.014 308.876 143.624V143.771L310.69 144.066V143.521C310.69 143.157 310.759 142.818 310.896 142.503C311.034 142.179 311.221 141.899 311.456 141.663C311.692 141.427 311.968 141.24 312.282 141.103C312.607 140.965 312.951 140.896 313.314 140.896H314.376C314.74 140.896 315.079 140.965 315.393 141.103C315.718 141.24 315.998 141.427 316.234 141.663C316.47 141.899 316.657 142.179 316.794 142.503C316.932 142.818 317.001 143.157 317.001 143.521V145.85H313.167C312.557 145.85 311.982 145.968 311.442 146.204C310.901 146.43 310.429 146.745 310.026 147.148C309.623 147.551 309.304 148.023 309.068 148.564C308.842 149.104 308.729 149.679 308.729 150.289V150.436C308.729 151.046 308.842 151.621 309.068 152.161C309.304 152.702 309.623 153.174 310.026 153.577C310.429 153.98 310.901 154.299 311.442 154.535C311.982 154.761 312.557 154.874 313.167 154.874H313.624C314.361 154.874 315.039 154.712 315.659 154.388C316.278 154.054 316.794 153.616 317.207 153.076L318.21 154.58H318.814V143.624C318.814 143.014 318.696 142.439 318.46 141.899C318.234 141.358 317.92 140.886 317.517 140.483C317.114 140.08 316.642 139.766 316.101 139.54C315.56 139.304 314.985 139.186 314.376 139.186H313.314ZM261.825 133.435V154.58H273.724V152.766H263.727V144.922H271.822V143.108H263.727V135.249H273.724V133.435H261.825ZM276.157 139.481L280.389 147.03L276.157 154.58H278.118L281.347 148.785L284.576 154.58H286.537L282.32 147.03L286.537 139.481H284.576L281.347 145.275L278.118 139.481H276.157ZM291.064 135.853V139.481H288.351V141.206H291.064V150.598C291.064 151.149 291.167 151.665 291.374 152.147C291.59 152.628 291.875 153.051 292.229 153.415C292.593 153.778 293.015 154.063 293.497 154.27C293.988 154.476 294.509 154.58 295.06 154.58H296.711V152.854H295.06C294.755 152.854 294.47 152.8 294.205 152.692C293.939 152.574 293.708 152.417 293.512 152.22C293.315 152.024 293.158 151.798 293.04 151.542C292.932 151.277 292.878 150.992 292.878 150.687V141.206H296.711V139.481H292.878V135.558L291.064 135.853ZM305.249 139.186C304.512 139.186 303.828 139.353 303.199 139.687C302.58 140.011 302.064 140.454 301.651 141.014L300.663 139.481H300.059V154.58H301.872V143.83C301.872 143.467 301.941 143.128 302.079 142.813C302.216 142.489 302.403 142.208 302.639 141.973C302.875 141.737 303.15 141.55 303.465 141.412C303.789 141.275 304.133 141.206 304.497 141.206H306.31V139.186H305.249Z" fill="url(#paint11_linear_181_1091)"/>
<path fill-rule="evenodd" clip-rule="evenodd" d="M337.418 123.543C344.367 123.543 350 129.176 350 136.125V152.902C350 159.851 344.367 165.484 337.418 165.484H242.63C235.681 165.484 230.047 159.851 230.047 152.902V136.125C230.047 129.176 235.681 123.543 242.63 123.543H337.418ZM313.314 139.186C312.705 139.186 312.13 139.304 311.589 139.54C311.048 139.766 310.577 140.08 310.174 140.483C309.771 140.886 309.451 141.358 309.215 141.899C308.989 142.439 308.876 143.014 308.876 143.624V143.771L310.69 144.066V143.521C310.69 143.157 310.759 142.818 310.896 142.503C311.034 142.179 311.221 141.899 311.456 141.663C311.692 141.427 311.968 141.24 312.282 141.103C312.607 140.965 312.951 140.896 313.314 140.896H314.376C314.74 140.896 315.079 140.965 315.393 141.103C315.718 141.24 315.998 141.427 316.234 141.663C316.47 141.899 316.657 142.179 316.794 142.503C316.932 142.818 317.001 143.157 317.001 143.521V145.85H313.167C312.557 145.85 311.982 145.968 311.442 146.204C310.901 146.43 310.429 146.745 310.026 147.148C309.623 147.551 309.304 148.023 309.068 148.564C308.842 149.104 308.729 149.679 308.729 150.289V150.436C308.729 151.046 308.842 151.621 309.068 152.161C309.304 152.702 309.623 153.174 310.026 153.577C310.429 153.98 310.901 154.299 311.442 154.535C311.982 154.761 312.557 154.874 313.167 154.874H313.624C314.361 154.874 315.039 154.712 315.659 154.388C316.278 154.054 316.794 153.616 317.207 153.076L318.21 154.58H318.814V143.624C318.814 143.014 318.696 142.439 318.46 141.899C318.234 141.358 317.92 140.886 317.517 140.483C317.114 140.08 316.642 139.766 316.101 139.54C315.56 139.304 314.985 139.186 314.376 139.186H313.314ZM261.825 133.435V154.58H273.724V152.766H263.727V144.922H271.822V143.108H263.727V135.249H273.724V133.435H261.825ZM276.157 139.481L280.389 147.03L276.157 154.58H278.118L281.347 148.785L284.576 154.58H286.537L282.32 147.03L286.537 139.481H284.576L281.347 145.275L278.118 139.481H276.157ZM291.064 135.853V139.481H288.351V141.206H291.064V150.598C291.064 151.149 291.167 151.665 291.374 152.147C291.59 152.628 291.875 153.051 292.229 153.415C292.593 153.778 293.015 154.063 293.497 154.27C293.988 154.476 294.509 154.58 295.06 154.58H296.711V152.854H295.06C294.755 152.854 294.47 152.8 294.205 152.692C293.939 152.574 293.708 152.417 293.512 152.22C293.315 152.024 293.158 151.798 293.04 151.542C292.932 151.277 292.878 150.992 292.878 150.687V141.206H296.711V139.481H292.878V135.558L291.064 135.853ZM305.249 139.186C304.512 139.186 303.828 139.353 303.199 139.687C302.58 140.011 302.064 140.454 301.651 141.014L300.663 139.481H300.059V154.58H301.872V143.83C301.872 143.467 301.941 143.128 302.079 142.813C302.216 142.489 302.403 142.208 302.639 141.973C302.875 141.737 303.15 141.55 303.465 141.412C303.789 141.275 304.133 141.206 304.497 141.206H306.31V139.186H305.249Z" fill="url(#paint12_linear_181_1091)"/>
<path fill-rule="evenodd" clip-rule="evenodd" d="M337.418 123.543C344.367 123.543 350 129.176 350 136.125V152.902C350 159.851 344.367 165.484 337.418 165.484H242.63C235.681 165.484 230.047 159.851 230.047 152.902V136.125C230.047 129.176 235.681 123.543 242.63 123.543H337.418ZM313.314 139.186C312.705 139.186 312.13 139.304 311.589 139.54C311.048 139.766 310.577 140.08 310.174 140.483C309.771 140.886 309.451 141.358 309.215 141.899C308.989 142.439 308.876 143.014 308.876 143.624V143.771L310.69 144.066V143.521C310.69 143.157 310.759 142.818 310.896 142.503C311.034 142.179 311.221 141.899 311.456 141.663C311.692 141.427 311.968 141.24 312.282 141.103C312.607 140.965 312.951 140.896 313.314 140.896H314.376C314.74 140.896 315.079 140.965 315.393 141.103C315.718 141.24 315.998 141.427 316.234 141.663C316.47 141.899 316.657 142.179 316.794 142.503C316.932 142.818 317.001 143.157 317.001 143.521V145.85H313.167C312.557 145.85 311.982 145.968 311.442 146.204C310.901 146.43 310.429 146.745 310.026 147.148C309.623 147.551 309.304 148.023 309.068 148.564C308.842 149.104 308.729 149.679 308.729 150.289V150.436C308.729 151.046 308.842 151.621 309.068 152.161C309.304 152.702 309.623 153.174 310.026 153.577C310.429 153.98 310.901 154.299 311.442 154.535C311.982 154.761 312.557 154.874 313.167 154.874H313.624C314.361 154.874 315.039 154.712 315.659 154.388C316.278 154.054 316.794 153.616 317.207 153.076L318.21 154.58H318.814V143.624C318.814 143.014 318.696 142.439 318.46 141.899C318.234 141.358 317.92 140.886 317.517 140.483C317.114 140.08 316.642 139.766 316.101 139.54C315.56 139.304 314.985 139.186 314.376 139.186H313.314ZM261.825 133.435V154.58H273.724V152.766H263.727V144.922H271.822V143.108H263.727V135.249H273.724V133.435H261.825ZM276.157 139.481L280.389 147.03L276.157 154.58H278.118L281.347 148.785L284.576 154.58H286.537L282.32 147.03L286.537 139.481H284.576L281.347 145.275L278.118 139.481H276.157ZM291.064 135.853V139.481H288.351V141.206H291.064V150.598C291.064 151.149 291.167 151.665 291.374 152.147C291.59 152.628 291.875 153.051 292.229 153.415C292.593 153.778 293.015 154.063 293.497 154.27C293.988 154.476 294.509 154.58 295.06 154.58H296.711V152.854H295.06C294.755 152.854 294.47 152.8 294.205 152.692C293.939 152.574 293.708 152.417 293.512 152.22C293.315 152.024 293.158 151.798 293.04 151.542C292.932 151.277 292.878 150.992 292.878 150.687V141.206H296.711V139.481H292.878V135.558L291.064 135.853ZM305.249 139.186C304.512 139.186 303.828 139.353 303.199 139.687C302.58 140.011 302.064 140.454 301.651 141.014L300.663 139.481H300.059V154.58H301.872V143.83C301.872 143.467 301.941 143.128 302.079 142.813C302.216 142.489 302.403 142.208 302.639 141.973C302.875 141.737 303.15 141.55 303.465 141.412C303.789 141.275 304.133 141.206 304.497 141.206H306.31V139.186H305.249Z" fill="url(#paint13_linear_181_1091)"/>
<defs>
<linearGradient id="paint0_linear_181_1091" x1="-2.30842" y1="58.5335" x2="350" y2="58.5335" gradientUnits="userSpaceOnUse">
<stop stop-color="#6D0815"/>
<stop offset="0.5" stop-color="#DB1933"/>
<stop offset="1" stop-color="#FA3A53"/>
</linearGradient>
<linearGradient id="paint1_linear_181_1091" x1="-2.30842" y1="58.5335" x2="350" y2="58.5335" gradientUnits="userSpaceOnUse">
<stop stop-color="#6D0815"/>
<stop offset="0.5" stop-color="#DB1933"/>
<stop offset="1" stop-color="#FA3A53"/>
</linearGradient>
<linearGradient id="paint2_linear_181_1091" x1="-2.30842" y1="58.5335" x2="350" y2="58.5335" gradientUnits="userSpaceOnUse">
<stop stop-color="#6D0815"/>
<stop offset="0.5" stop-color="#DB1933"/>
<stop offset="1" stop-color="#FA3A53"/>
</linearGradient>
<linearGradient id="paint3_linear_181_1091" x1="-2.30842" y1="58.5335" x2="350" y2="58.5335" gradientUnits="userSpaceOnUse">
<stop stop-color="#6D0815"/>
<stop offset="0.5" stop-color="#DB1933"/>
<stop offset="1" stop-color="#FA3A53"/>
</linearGradient>
<linearGradient id="paint4_linear_181_1091" x1="-2.30842" y1="58.5335" x2="350" y2="58.5335" gradientUnits="userSpaceOnUse">
<stop stop-color="#6D0815"/>
<stop offset="0.5" stop-color="#DB1933"/>
<stop offset="1" stop-color="#FA3A53"/>
</linearGradient>
<linearGradient id="paint5_linear_181_1091" x1="-2.30842" y1="58.5335" x2="350" y2="58.5335" gradientUnits="userSpaceOnUse">
<stop stop-color="#6D0815"/>
<stop offset="0.5" stop-color="#DB1933"/>
<stop offset="1" stop-color="#FA3A53"/>
</linearGradient>
<linearGradient id="paint6_linear_181_1091" x1="204.883" y1="123.543" x2="350" y2="183.1" gradientUnits="userSpaceOnUse">
<stop stop-color="#82CE48"/>
<stop offset="0.249955" stop-color="#69A230"/>
<stop offset="1" stop-color="#547029"/>
</linearGradient>
<linearGradient id="paint7_linear_181_1091" x1="350" y1="123.543" x2="230.047" y2="165.484" gradientUnits="userSpaceOnUse">
<stop stop-color="#6D0815"/>
<stop offset="0.75" stop-color="#DB1933"/>
<stop offset="1" stop-color="#FA3A53"/>
</linearGradient>
<linearGradient id="paint8_linear_181_1091" x1="350" y1="123.543" x2="226.722" y2="149.976" gradientUnits="userSpaceOnUse">
<stop stop-color="#070707"/>
<stop offset="0.75" stop-color="#0F0D0D"/>
<stop offset="1" stop-color="#161212"/>
</linearGradient>
<linearGradient id="paint9_linear_181_1091" x1="350" y1="123.543" x2="230.047" y2="165.484" gradientUnits="userSpaceOnUse">
<stop stop-color="#9E9494"/>
<stop offset="0.5" stop-color="#D2C3C3"/>
<stop offset="1" stop-color="#FDEAEA"/>
</linearGradient>
<linearGradient id="paint10_linear_181_1091" x1="204.883" y1="123.543" x2="350" y2="183.1" gradientUnits="userSpaceOnUse">
<stop stop-color="#82CE48"/>
<stop offset="0.249955" stop-color="#69A230"/>
<stop offset="1" stop-color="#547029"/>
</linearGradient>
<linearGradient id="paint11_linear_181_1091" x1="350" y1="123.543" x2="230.047" y2="165.484" gradientUnits="userSpaceOnUse">
<stop stop-color="#6D0815"/>
<stop offset="0.75" stop-color="#DB1933"/>
<stop offset="1" stop-color="#FA3A53"/>
</linearGradient>
<linearGradient id="paint12_linear_181_1091" x1="350" y1="123.543" x2="226.722" y2="149.976" gradientUnits="userSpaceOnUse">
<stop stop-color="#070707"/>
<stop offset="0.75" stop-color="#0F0D0D"/>
<stop offset="1" stop-color="#161212"/>
</linearGradient>
<linearGradient id="paint13_linear_181_1091" x1="350" y1="123.543" x2="230.047" y2="165.484" gradientUnits="userSpaceOnUse">
<stop stop-color="#9E9494"/>
<stop offset="0.5" stop-color="#D2C3C3"/>
<stop offset="1" stop-color="#FDEAEA"/>
</linearGradient>
</defs>
</svg>
