<svg width="350" height="166" viewBox="0 0 350 166" fill="none" xmlns="http://www.w3.org/2000/svg">
<path d="M0 13.1294L41.5523 11.8308C54.4412 11.8308 64.204 15.1493 70.8409 21.7861C77.5739 28.4229 80.9404 38.33 80.9404 51.5075C80.9404 64.5888 77.4296 76.5639 70.408 87.4329C63.3865 98.3019 53.8641 105.468 41.8408 108.93C34.9155 108.93 27.1725 107.103 18.612 103.448C16.9768 105.949 15.8707 108.113 15.2935 109.94L12.2637 109.219C14.5722 98.7347 15.7264 83.345 15.7264 63.0498C15.7264 42.7546 15.1974 28.0863 14.1393 19.0448C9.5224 17.5058 4.80929 16.7363 0 16.7363V13.1294ZM62.0398 30.5871C59.9238 26.3549 56.8939 23.0846 52.9503 20.7761C49.1029 18.3715 44.8707 17.1692 40.2538 17.1692C35.6368 17.1692 31.597 17.7944 28.1343 19.0448C27.2687 28.0863 26.8358 40.8309 26.8358 57.2786C26.8358 73.6302 27.0763 86.0382 27.5572 94.5025C32.7513 97.1958 38.6667 98.5424 45.3035 98.5424C51.9403 98.5424 57.0863 96.9072 60.7413 93.6369C65.6468 84.6916 68.0996 73.6783 68.0996 60.597C68.0996 48.67 66.0797 38.6667 62.0398 30.5871Z" fill="url(#paint0_linear_180_1061)"/>
<path d="M110.826 67.2339V79.3533C110.826 89.7413 111.163 97.4362 111.836 102.438C114.529 103.015 117.559 103.929 120.926 105.179L120.637 107.92C115.251 107.151 110.153 106.766 105.344 106.766C100.534 106.766 95.6771 107.055 90.7716 107.632L90.3388 104.891C93.2243 103.64 96.0618 102.678 98.8512 102.005C99.7169 95.4644 100.15 87.9138 100.15 79.3533V67.2339C100.15 59.4428 99.765 51.6518 98.9955 43.8607C96.4946 43.0912 93.8976 42.7065 91.2044 42.7065V39.6766C98.6107 39.1957 105.44 38.2339 111.692 36.7911L112.702 37.3682C111.452 44.7745 110.826 54.7297 110.826 67.2339ZM113.423 17.3134C112.75 18.5639 111.548 20.1509 109.816 22.0746C108.181 23.9984 106.787 25.345 105.632 26.1144C104.478 25.345 103.035 23.9984 101.304 22.0746C99.6688 20.1509 98.5145 18.5639 97.8412 17.3134C98.4184 16.1592 99.5245 14.8607 101.16 13.4179C102.795 11.8789 104.286 10.7728 105.632 10.0995C106.883 10.869 108.326 12.0232 109.961 13.5622C111.596 15.005 112.75 16.2554 113.423 17.3134Z" fill="url(#paint1_linear_180_1061)"/>
<path d="M128.444 81.3732C128.444 71.3699 131.137 62.2322 136.524 53.9602C141.91 45.5921 149.124 39.869 158.166 36.7911C164.61 36.7911 171.343 37.801 178.365 39.8209C179.711 37.801 180.817 35.2521 181.683 32.1741L184.713 33.0398C182.597 41.6965 181.539 56.9901 181.539 78.9204C181.539 88.7314 181.875 96.4263 182.549 102.005C184.857 102.775 187.454 103.159 190.34 103.159V106.189C184.184 106.478 177.691 107.391 170.862 108.93L169.852 108.353C170.91 101.716 171.439 94.214 171.439 85.8458L170.862 85.7015C167.496 90.5108 163.504 95.1758 158.887 99.6966C154.27 104.217 149.894 107.295 145.758 108.93C140.467 108.93 136.235 105.997 133.061 100.129C129.983 94.2621 128.444 88.01 128.444 81.3732ZM139.986 74.8806C139.986 79.5938 140.804 84.4992 142.439 89.5971C144.17 94.5987 146.623 97.0996 149.797 97.0996C153.164 97.0996 157.252 94.6949 162.061 89.8856C166.87 85.0763 169.996 80.748 171.439 76.9005C171.439 62.5689 171.103 53.335 170.429 49.199C165.331 46.8906 160.378 45.7363 155.569 45.7363C150.855 45.7363 147.248 46.8906 144.748 49.199C141.573 56.5092 139.986 65.0697 139.986 74.8806Z" fill="url(#paint2_linear_180_1061)"/>
<path d="M239.924 64.3483C239.924 74.3516 237.231 83.5374 231.845 91.9055C226.458 100.178 219.244 105.852 210.203 108.93C200.969 108.93 192.553 107.199 184.954 103.736C186.204 92.5788 186.83 74.9287 186.83 50.7861C186.83 26.6435 185.675 10.0033 183.367 0.86567L186.397 0C187.262 3.07795 188.369 5.62687 189.715 7.64677C195.005 6.78109 200.151 5.62687 205.153 4.18408L205.874 6.7811C204.047 8.22388 201.787 9.61858 199.093 10.9652C197.651 18.8524 196.929 35.1559 196.929 59.8757L197.506 60.0199C200.873 55.2106 204.865 50.5456 209.481 46.0249C214.098 41.5042 218.475 38.4262 222.611 36.7911C227.901 36.7911 232.085 39.7247 235.163 45.5921C238.337 51.4594 239.924 57.7115 239.924 64.3483ZM228.382 70.8408C228.382 66.1277 227.516 61.2704 225.785 56.2687C224.15 51.1708 221.745 48.6219 218.571 48.6219C215.204 48.6219 211.117 51.0266 206.307 55.8359C201.498 60.6451 198.372 64.9735 196.929 68.8209C196.929 83.1526 197.266 92.3865 197.939 96.5224C203.037 98.8309 207.942 99.9851 212.656 99.9851C217.465 99.9851 221.12 98.8309 223.621 96.5224C226.795 89.2123 228.382 80.6518 228.382 70.8408Z" fill="url(#paint3_linear_180_1061)"/>
<path d="M267.011 73.5821C267.011 76.3715 267.011 80.7961 267.011 86.8558C267.011 92.8193 267.3 98.0133 267.877 102.438C270.57 103.015 273.6 103.929 276.967 105.179L276.678 107.92C271.292 107.151 266.194 106.766 261.385 106.766C256.575 106.766 251.718 107.055 246.812 107.632L246.38 104.891C249.265 103.64 252.103 102.678 254.892 102.005C255.758 95.8492 256.239 86.3748 256.335 73.5821L256.623 46.602C256.623 44.1012 256.623 39.6285 256.623 33.1841C256.623 26.6435 256.287 19.9586 255.613 13.1294C253.113 12.3599 250.516 11.9751 247.822 11.9751V8.94528C257.441 8.27197 266.627 6.68491 275.38 4.18408L276.101 6.7811C274.273 8.22388 272.013 9.61858 269.32 10.9652C268.166 17.3134 267.492 29.1924 267.3 46.602L267.011 73.5821Z" fill="url(#paint4_linear_180_1061)"/>
<path d="M314.746 108.93C306.378 108.93 299.501 106.141 294.114 100.562C288.728 94.8873 286.035 87.481 286.035 78.3433C286.035 69.2057 288.776 60.597 294.259 52.5174C299.837 44.3417 307.148 39.0995 316.189 36.7911C325.134 36.7911 331.915 39.3881 336.532 44.5821C341.149 49.7761 343.458 56.942 343.458 66.0796C343.458 75.2173 340.765 83.8259 335.378 91.9055C329.992 99.9851 323.114 105.66 314.746 108.93ZM312.294 45.7363C308.254 45.7363 304.935 46.8906 302.338 49.199C299.164 55.2587 297.577 62.2322 297.577 70.1194C297.577 78.0067 299.357 84.9801 302.915 91.0399C306.474 97.0034 311.236 99.9851 317.199 99.9851C321.239 99.9851 324.605 98.7828 327.298 96.3782C330.376 90.5108 331.915 83.3931 331.915 75.0249C331.915 66.5606 330.28 59.5871 327.01 54.1045C323.836 48.5257 318.93 45.7363 312.294 45.7363Z" fill="url(#paint5_linear_180_1061)"/>
<path d="M303.628 140.896C303.992 140.896 304.331 140.965 304.646 141.103C304.97 141.24 305.25 141.427 305.486 141.663C305.722 141.899 305.909 142.179 306.047 142.503C306.184 142.818 306.253 143.157 306.253 143.521V145.762H299.795V143.521C299.795 143.157 299.864 142.818 300.001 142.503C300.139 142.179 300.326 141.899 300.561 141.663C300.797 141.427 301.073 141.24 301.387 141.103C301.712 140.965 302.056 140.896 302.419 140.896H303.628Z" fill="url(#paint6_linear_180_1061)"/>
<path d="M282.69 135.249C283.162 135.249 283.6 135.337 284.003 135.514C284.416 135.691 284.774 135.937 285.079 136.251C285.394 136.556 285.639 136.915 285.816 137.328C285.993 137.731 286.082 138.168 286.082 138.64V149.389C286.082 149.861 285.993 150.303 285.816 150.716C285.639 151.119 285.394 151.473 285.079 151.778C284.774 152.083 284.416 152.324 284.003 152.5C283.6 152.677 283.162 152.766 282.69 152.766H277.987V135.249H282.69Z" fill="url(#paint7_linear_180_1061)"/>
<path fill-rule="evenodd" clip-rule="evenodd" d="M337.418 123.543C344.367 123.543 350 129.176 350 136.125V152.902C350 159.851 344.367 165.484 337.418 165.484H256.89C249.941 165.484 244.307 159.851 244.307 152.902V136.125C244.307 129.176 249.941 123.543 256.89 123.543H337.418ZM302.419 139.186C301.81 139.186 301.235 139.304 300.694 139.54C300.154 139.766 299.682 140.08 299.279 140.483C298.876 140.886 298.556 141.358 298.32 141.899C298.094 142.439 297.981 143.014 297.981 143.624V150.436C297.981 151.046 298.094 151.621 298.32 152.161C298.556 152.702 298.876 153.174 299.279 153.577C299.682 153.98 300.154 154.299 300.694 154.535C301.235 154.761 301.81 154.874 302.419 154.874H303.628C304.238 154.874 304.813 154.761 305.354 154.535C305.894 154.299 306.366 153.98 306.769 153.577C307.172 153.174 307.487 152.702 307.713 152.161C307.949 151.621 308.067 151.046 308.067 150.436V149.832L306.253 149.537V150.539C306.253 150.903 306.184 151.247 306.047 151.572C305.909 151.886 305.722 152.161 305.486 152.397C305.25 152.633 304.97 152.82 304.646 152.958C304.331 153.095 303.992 153.164 303.628 153.164H302.419C302.056 153.164 301.712 153.095 301.387 152.958C301.073 152.82 300.797 152.633 300.561 152.397C300.326 152.161 300.139 151.886 300.001 151.572C299.864 151.247 299.795 150.903 299.795 150.539V147.178H308.067V143.624C308.067 143.014 307.949 142.439 307.713 141.899C307.487 141.358 307.172 140.886 306.769 140.483C306.366 140.08 305.894 139.766 305.354 139.54C304.813 139.304 304.238 139.186 303.628 139.186H302.419ZM276.085 133.435V154.58H282.779C283.497 154.58 284.17 154.447 284.799 154.181C285.438 153.906 285.993 153.533 286.465 153.061C286.937 152.589 287.306 152.038 287.571 151.409C287.846 150.78 287.984 150.107 287.984 149.389V138.64C287.984 137.923 287.846 137.249 287.571 136.62C287.306 135.981 286.937 135.426 286.465 134.954C285.993 134.482 285.438 134.113 284.799 133.848C284.17 133.573 283.497 133.435 282.779 133.435H276.085ZM291.921 139.481V154.58H293.735V139.481H291.921ZM313.198 135.853V139.481H310.485V141.206H313.198V150.598C313.198 151.149 313.301 151.665 313.508 152.147C313.724 152.628 314.009 153.051 314.363 153.415C314.727 153.778 315.149 154.063 315.631 154.27C316.122 154.476 316.643 154.58 317.194 154.58H318.845V152.854H317.194C316.889 152.854 316.604 152.8 316.339 152.692C316.073 152.574 315.842 152.417 315.646 152.22C315.449 152.024 315.292 151.798 315.174 151.542C315.066 151.277 315.012 150.992 315.012 150.687V141.206H318.845V139.481H315.012V135.558L313.198 135.853ZM291.773 133.435V135.853H293.882V133.435H291.773Z" fill="url(#paint8_linear_180_1061)"/>
<defs>
<linearGradient id="paint0_linear_180_1061" x1="-2.30842" y1="106.766" x2="350" y2="10.3008" gradientUnits="userSpaceOnUse">
<stop stop-color="#163A1C"/>
<stop offset="0.75" stop-color="#2A692A"/>
<stop offset="1" stop-color="#37A848"/>
</linearGradient>
<linearGradient id="paint1_linear_180_1061" x1="-2.30842" y1="106.766" x2="350" y2="10.3008" gradientUnits="userSpaceOnUse">
<stop stop-color="#163A1C"/>
<stop offset="0.75" stop-color="#2A692A"/>
<stop offset="1" stop-color="#37A848"/>
</linearGradient>
<linearGradient id="paint2_linear_180_1061" x1="-2.30842" y1="106.766" x2="350" y2="10.3008" gradientUnits="userSpaceOnUse">
<stop stop-color="#163A1C"/>
<stop offset="0.75" stop-color="#2A692A"/>
<stop offset="1" stop-color="#37A848"/>
</linearGradient>
<linearGradient id="paint3_linear_180_1061" x1="-2.30842" y1="106.766" x2="350" y2="10.3008" gradientUnits="userSpaceOnUse">
<stop stop-color="#163A1C"/>
<stop offset="0.75" stop-color="#2A692A"/>
<stop offset="1" stop-color="#37A848"/>
</linearGradient>
<linearGradient id="paint4_linear_180_1061" x1="-2.30842" y1="106.766" x2="350" y2="10.3008" gradientUnits="userSpaceOnUse">
<stop stop-color="#163A1C"/>
<stop offset="0.75" stop-color="#2A692A"/>
<stop offset="1" stop-color="#37A848"/>
</linearGradient>
<linearGradient id="paint5_linear_180_1061" x1="-2.30842" y1="106.766" x2="350" y2="10.3008" gradientUnits="userSpaceOnUse">
<stop stop-color="#163A1C"/>
<stop offset="0.75" stop-color="#2A692A"/>
<stop offset="1" stop-color="#37A848"/>
</linearGradient>
<linearGradient id="paint6_linear_180_1061" x1="244.308" y1="165.484" x2="350" y2="123.543" gradientUnits="userSpaceOnUse">
<stop stop-color="#CECA48"/>
<stop offset="0.197115" stop-color="#A29530"/>
<stop offset="1" stop-color="#704F29"/>
</linearGradient>
<linearGradient id="paint7_linear_180_1061" x1="244.308" y1="165.484" x2="350" y2="123.543" gradientUnits="userSpaceOnUse">
<stop stop-color="#CECA48"/>
<stop offset="0.197115" stop-color="#A29530"/>
<stop offset="1" stop-color="#704F29"/>
</linearGradient>
<linearGradient id="paint8_linear_180_1061" x1="244.308" y1="165.484" x2="350" y2="123.543" gradientUnits="userSpaceOnUse">
<stop stop-color="#CECA48"/>
<stop offset="0.197115" stop-color="#A29530"/>
<stop offset="1" stop-color="#704F29"/>
</linearGradient>
</defs>
</svg>
