<svg width="350" height="166" viewBox="0 0 350 166" fill="none" xmlns="http://www.w3.org/2000/svg">
<path d="M0 13.1294L41.5523 11.8308C54.4412 11.8308 64.204 15.1493 70.8409 21.7861C77.5739 28.4229 80.9404 38.33 80.9404 51.5075C80.9404 64.5888 77.4296 76.5639 70.408 87.4329C63.3865 98.3019 53.8641 105.468 41.8408 108.93C34.9155 108.93 27.1725 107.103 18.612 103.448C16.9768 105.949 15.8707 108.113 15.2935 109.94L12.2637 109.219C14.5722 98.7347 15.7264 83.345 15.7264 63.0498C15.7264 42.7546 15.1974 28.0863 14.1393 19.0448C9.5224 17.5058 4.80929 16.7363 0 16.7363V13.1294ZM62.0398 30.5871C59.9238 26.3549 56.8939 23.0846 52.9503 20.7761C49.1029 18.3715 44.8707 17.1692 40.2538 17.1692C35.6368 17.1692 31.597 17.7944 28.1343 19.0448C27.2687 28.0863 26.8358 40.8309 26.8358 57.2786C26.8358 73.6302 27.0763 86.0382 27.5572 94.5025C32.7513 97.1958 38.6667 98.5424 45.3035 98.5424C51.9403 98.5424 57.0863 96.9072 60.7413 93.6369C65.6468 84.6916 68.0996 73.6783 68.0996 60.597C68.0996 48.67 66.0797 38.6667 62.0398 30.5871Z" fill="url(#paint0_linear_180_1060)"/>
<path d="M110.826 67.2339V79.3533C110.826 89.7413 111.163 97.4362 111.836 102.438C114.529 103.015 117.559 103.929 120.926 105.179L120.637 107.92C115.251 107.151 110.153 106.766 105.344 106.766C100.534 106.766 95.6771 107.055 90.7716 107.632L90.3388 104.891C93.2243 103.64 96.0618 102.678 98.8512 102.005C99.7169 95.4644 100.15 87.9138 100.15 79.3533V67.2339C100.15 59.4428 99.765 51.6518 98.9955 43.8607C96.4946 43.0912 93.8976 42.7065 91.2044 42.7065V39.6766C98.6107 39.1957 105.44 38.2339 111.692 36.7911L112.702 37.3682C111.452 44.7745 110.826 54.7297 110.826 67.2339ZM113.423 17.3134C112.75 18.5639 111.548 20.1509 109.816 22.0746C108.181 23.9984 106.787 25.345 105.632 26.1144C104.478 25.345 103.035 23.9984 101.304 22.0746C99.6688 20.1509 98.5145 18.5639 97.8412 17.3134C98.4184 16.1592 99.5245 14.8607 101.16 13.4179C102.795 11.8789 104.286 10.7728 105.632 10.0995C106.883 10.869 108.326 12.0232 109.961 13.5622C111.596 15.005 112.75 16.2554 113.423 17.3134Z" fill="url(#paint1_linear_180_1060)"/>
<path d="M128.444 81.3732C128.444 71.3699 131.137 62.2322 136.524 53.9602C141.91 45.5921 149.124 39.869 158.166 36.7911C164.61 36.7911 171.343 37.801 178.365 39.8209C179.711 37.801 180.817 35.2521 181.683 32.1741L184.713 33.0398C182.597 41.6965 181.539 56.9901 181.539 78.9204C181.539 88.7314 181.875 96.4263 182.549 102.005C184.857 102.775 187.454 103.159 190.34 103.159V106.189C184.184 106.478 177.691 107.391 170.862 108.93L169.852 108.353C170.91 101.716 171.439 94.214 171.439 85.8458L170.862 85.7015C167.496 90.5108 163.504 95.1758 158.887 99.6966C154.27 104.217 149.894 107.295 145.758 108.93C140.467 108.93 136.235 105.997 133.061 100.129C129.983 94.2621 128.444 88.01 128.444 81.3732ZM139.986 74.8806C139.986 79.5938 140.804 84.4992 142.439 89.5971C144.17 94.5987 146.623 97.0996 149.797 97.0996C153.164 97.0996 157.252 94.6949 162.061 89.8856C166.87 85.0763 169.996 80.748 171.439 76.9005C171.439 62.5689 171.103 53.335 170.429 49.199C165.331 46.8906 160.378 45.7363 155.569 45.7363C150.855 45.7363 147.248 46.8906 144.748 49.199C141.573 56.5092 139.986 65.0697 139.986 74.8806Z" fill="url(#paint2_linear_180_1060)"/>
<path d="M239.924 64.3483C239.924 74.3516 237.231 83.5374 231.845 91.9055C226.458 100.178 219.244 105.852 210.203 108.93C200.969 108.93 192.553 107.199 184.954 103.736C186.204 92.5788 186.83 74.9287 186.83 50.7861C186.83 26.6435 185.675 10.0033 183.367 0.86567L186.397 0C187.262 3.07795 188.369 5.62687 189.715 7.64677C195.005 6.78109 200.151 5.62687 205.153 4.18408L205.874 6.7811C204.047 8.22388 201.787 9.61858 199.093 10.9652C197.651 18.8524 196.929 35.1559 196.929 59.8757L197.506 60.0199C200.873 55.2106 204.865 50.5456 209.481 46.0249C214.098 41.5042 218.475 38.4262 222.611 36.7911C227.901 36.7911 232.085 39.7247 235.163 45.5921C238.337 51.4594 239.924 57.7115 239.924 64.3483ZM228.382 70.8408C228.382 66.1277 227.516 61.2704 225.785 56.2687C224.15 51.1708 221.745 48.6219 218.571 48.6219C215.204 48.6219 211.117 51.0266 206.307 55.8359C201.498 60.6451 198.372 64.9735 196.929 68.8209C196.929 83.1526 197.266 92.3865 197.939 96.5224C203.037 98.8309 207.942 99.9851 212.656 99.9851C217.465 99.9851 221.12 98.8309 223.621 96.5224C226.795 89.2123 228.382 80.6518 228.382 70.8408Z" fill="url(#paint3_linear_180_1060)"/>
<path d="M267.011 73.5821C267.011 76.3715 267.011 80.7961 267.011 86.8558C267.011 92.8193 267.3 98.0133 267.877 102.438C270.57 103.015 273.6 103.929 276.967 105.179L276.678 107.92C271.292 107.151 266.194 106.766 261.385 106.766C256.575 106.766 251.718 107.055 246.812 107.632L246.38 104.891C249.265 103.64 252.103 102.678 254.892 102.005C255.758 95.8492 256.239 86.3748 256.335 73.5821L256.623 46.602C256.623 44.1012 256.623 39.6285 256.623 33.1841C256.623 26.6435 256.287 19.9586 255.613 13.1294C253.113 12.3599 250.516 11.9751 247.822 11.9751V8.94528C257.441 8.27197 266.627 6.68491 275.38 4.18408L276.101 6.7811C274.273 8.22388 272.013 9.61858 269.32 10.9652C268.166 17.3134 267.492 29.1924 267.3 46.602L267.011 73.5821Z" fill="url(#paint4_linear_180_1060)"/>
<path d="M314.746 108.93C306.378 108.93 299.501 106.141 294.114 100.562C288.728 94.8873 286.035 87.481 286.035 78.3433C286.035 69.2057 288.776 60.597 294.259 52.5174C299.837 44.3417 307.148 39.0995 316.189 36.7911C325.134 36.7911 331.915 39.3881 336.532 44.5821C341.149 49.7761 343.458 56.942 343.458 66.0796C343.458 75.2173 340.765 83.8259 335.378 91.9055C329.992 99.9851 323.114 105.66 314.746 108.93ZM312.294 45.7363C308.254 45.7363 304.935 46.8906 302.338 49.199C299.164 55.2587 297.577 62.2322 297.577 70.1194C297.577 78.0067 299.357 84.9801 302.915 91.0399C306.474 97.0034 311.236 99.9851 317.199 99.9851C321.239 99.9851 324.605 98.7828 327.298 96.3782C330.376 90.5108 331.915 83.3931 331.915 75.0249C331.915 66.5606 330.28 59.5871 327.01 54.1045C323.836 48.5257 318.93 45.7363 312.294 45.7363Z" fill="url(#paint5_linear_180_1060)"/>
<path d="M291.266 140.896C291.629 140.896 291.968 140.965 292.283 141.103C292.607 141.24 292.887 141.427 293.123 141.663C293.359 141.899 293.546 142.179 293.684 142.503C293.821 142.818 293.89 143.157 293.89 143.521V145.762H287.432V143.521C287.432 143.157 287.501 142.818 287.638 142.503C287.776 142.179 287.963 141.899 288.199 141.663C288.434 141.427 288.71 141.24 289.024 141.103C289.349 140.965 289.693 140.896 290.056 140.896H291.266Z" fill="url(#paint6_linear_180_1060)"/>
<path d="M291.266 140.896C291.629 140.896 291.968 140.965 292.283 141.103C292.607 141.24 292.887 141.427 293.123 141.663C293.359 141.899 293.546 142.179 293.684 142.503C293.821 142.818 293.89 143.157 293.89 143.521V145.762H287.432V143.521C287.432 143.157 287.501 142.818 287.638 142.503C287.776 142.179 287.963 141.899 288.199 141.663C288.434 141.427 288.71 141.24 289.024 141.103C289.349 140.965 289.693 140.896 290.056 140.896H291.266Z" fill="url(#paint7_linear_180_1060)"/>
<path d="M313.649 140.896C314.012 140.896 314.351 140.965 314.666 141.103C314.99 141.24 315.27 141.427 315.506 141.663C315.742 141.899 315.929 142.179 316.067 142.503C316.204 142.818 316.273 143.157 316.273 143.521V150.539C316.273 150.903 316.204 151.247 316.067 151.572C315.929 151.886 315.742 152.161 315.506 152.397C315.27 152.633 314.99 152.82 314.666 152.958C314.351 153.095 314.012 153.164 313.649 153.164H312.439C312.076 153.164 311.732 153.095 311.407 152.958C311.093 152.82 310.817 152.633 310.582 152.397C310.346 152.161 310.159 151.886 310.021 151.572C309.884 151.247 309.815 150.903 309.815 150.539V143.521C309.815 143.157 309.884 142.818 310.021 142.503C310.159 142.179 310.346 141.899 310.582 141.663C310.817 141.427 311.093 141.24 311.407 141.103C311.732 140.965 312.076 140.896 312.439 140.896H313.649Z" fill="url(#paint8_linear_180_1060)"/>
<path d="M313.649 140.896C314.012 140.896 314.351 140.965 314.666 141.103C314.99 141.24 315.27 141.427 315.506 141.663C315.742 141.899 315.929 142.179 316.067 142.503C316.204 142.818 316.273 143.157 316.273 143.521V150.539C316.273 150.903 316.204 151.247 316.067 151.572C315.929 151.886 315.742 152.161 315.506 152.397C315.27 152.633 314.99 152.82 314.666 152.958C314.351 153.095 314.012 153.164 313.649 153.164H312.439C312.076 153.164 311.732 153.095 311.407 152.958C311.093 152.82 310.817 152.633 310.582 152.397C310.346 152.161 310.159 151.886 310.021 151.572C309.884 151.247 309.815 150.903 309.815 150.539V143.521C309.815 143.157 309.884 142.818 310.021 142.503C310.159 142.179 310.346 141.899 310.582 141.663C310.817 141.427 311.093 141.24 311.407 141.103C311.732 140.965 312.076 140.896 312.439 140.896H313.649Z" fill="url(#paint9_linear_180_1060)"/>
<path fill-rule="evenodd" clip-rule="evenodd" d="M337.418 123.543C344.367 123.543 350 129.176 350 136.125V152.902C350 159.851 344.367 165.484 337.418 165.484H252.696C245.747 165.484 240.113 159.851 240.113 152.902V136.125C240.113 129.176 245.747 123.543 252.696 123.543H337.418ZM290.056 139.186C289.447 139.186 288.872 139.304 288.331 139.54C287.791 139.766 287.319 140.08 286.916 140.483C286.513 140.886 286.193 141.358 285.957 141.899C285.731 142.439 285.618 143.014 285.618 143.624V150.436C285.618 151.046 285.731 151.621 285.957 152.161C286.193 152.702 286.513 153.174 286.916 153.577C287.319 153.98 287.791 154.299 288.331 154.535C288.872 154.761 289.447 154.874 290.056 154.874H291.266C291.875 154.874 292.45 154.761 292.991 154.535C293.531 154.299 294.003 153.98 294.406 153.577C294.809 153.174 295.124 152.702 295.35 152.161C295.586 151.621 295.704 151.046 295.704 150.436V149.832L293.89 149.537V150.539C293.89 150.903 293.821 151.247 293.684 151.572C293.546 151.886 293.359 152.161 293.123 152.397C292.887 152.633 292.607 152.82 292.283 152.958C291.968 153.095 291.629 153.164 291.266 153.164H290.056C289.693 153.164 289.349 153.095 289.024 152.958C288.71 152.82 288.434 152.633 288.199 152.397C287.963 152.161 287.776 151.886 287.638 151.572C287.501 151.247 287.432 150.903 287.432 150.539V147.178H295.704V143.624C295.704 143.014 295.586 142.439 295.35 141.899C295.124 141.358 294.809 140.886 294.406 140.483C294.003 140.08 293.531 139.766 292.991 139.54C292.45 139.304 291.875 139.186 291.266 139.186H290.056ZM312.439 139.186C311.83 139.186 311.255 139.304 310.714 139.54C310.174 139.766 309.702 140.08 309.299 140.483C308.896 140.886 308.576 141.358 308.34 141.899C308.114 142.439 308.001 143.014 308.001 143.624V150.436C308.001 151.046 308.114 151.621 308.34 152.161C308.576 152.702 308.896 153.174 309.299 153.577C309.702 153.98 310.174 154.299 310.714 154.535C311.255 154.761 311.83 154.874 312.439 154.874H313.649C314.258 154.874 314.833 154.761 315.374 154.535C315.914 154.299 316.386 153.98 316.789 153.577C317.192 153.174 317.507 152.702 317.733 152.161C317.969 151.621 318.087 151.046 318.087 150.436V143.624C318.087 143.014 317.969 142.439 317.733 141.899C317.507 141.358 317.192 140.886 316.789 140.483C316.386 140.08 315.914 139.766 315.374 139.54C314.833 139.304 314.258 139.186 313.649 139.186H312.439ZM270.976 133.435V135.249H280.104L270.681 153.68V154.58H282.581V152.766H273.159L282.581 134.349V133.435H270.976ZM304.521 139.186C303.784 139.186 303.101 139.353 302.472 139.687C301.852 140.011 301.336 140.454 300.924 141.014L299.936 139.481H299.331V154.58H301.145V143.83C301.145 143.467 301.214 143.128 301.351 142.813C301.489 142.489 301.676 142.208 301.911 141.973C302.147 141.737 302.423 141.55 302.737 141.412C303.062 141.275 303.406 141.206 303.769 141.206H305.583V139.186H304.521Z" fill="url(#paint10_linear_180_1060)"/>
<path fill-rule="evenodd" clip-rule="evenodd" d="M337.418 123.543C344.367 123.543 350 129.176 350 136.125V152.902C350 159.851 344.367 165.484 337.418 165.484H252.696C245.747 165.484 240.113 159.851 240.113 152.902V136.125C240.113 129.176 245.747 123.543 252.696 123.543H337.418ZM290.056 139.186C289.447 139.186 288.872 139.304 288.331 139.54C287.791 139.766 287.319 140.08 286.916 140.483C286.513 140.886 286.193 141.358 285.957 141.899C285.731 142.439 285.618 143.014 285.618 143.624V150.436C285.618 151.046 285.731 151.621 285.957 152.161C286.193 152.702 286.513 153.174 286.916 153.577C287.319 153.98 287.791 154.299 288.331 154.535C288.872 154.761 289.447 154.874 290.056 154.874H291.266C291.875 154.874 292.45 154.761 292.991 154.535C293.531 154.299 294.003 153.98 294.406 153.577C294.809 153.174 295.124 152.702 295.35 152.161C295.586 151.621 295.704 151.046 295.704 150.436V149.832L293.89 149.537V150.539C293.89 150.903 293.821 151.247 293.684 151.572C293.546 151.886 293.359 152.161 293.123 152.397C292.887 152.633 292.607 152.82 292.283 152.958C291.968 153.095 291.629 153.164 291.266 153.164H290.056C289.693 153.164 289.349 153.095 289.024 152.958C288.71 152.82 288.434 152.633 288.199 152.397C287.963 152.161 287.776 151.886 287.638 151.572C287.501 151.247 287.432 150.903 287.432 150.539V147.178H295.704V143.624C295.704 143.014 295.586 142.439 295.35 141.899C295.124 141.358 294.809 140.886 294.406 140.483C294.003 140.08 293.531 139.766 292.991 139.54C292.45 139.304 291.875 139.186 291.266 139.186H290.056ZM312.439 139.186C311.83 139.186 311.255 139.304 310.714 139.54C310.174 139.766 309.702 140.08 309.299 140.483C308.896 140.886 308.576 141.358 308.34 141.899C308.114 142.439 308.001 143.014 308.001 143.624V150.436C308.001 151.046 308.114 151.621 308.34 152.161C308.576 152.702 308.896 153.174 309.299 153.577C309.702 153.98 310.174 154.299 310.714 154.535C311.255 154.761 311.83 154.874 312.439 154.874H313.649C314.258 154.874 314.833 154.761 315.374 154.535C315.914 154.299 316.386 153.98 316.789 153.577C317.192 153.174 317.507 152.702 317.733 152.161C317.969 151.621 318.087 151.046 318.087 150.436V143.624C318.087 143.014 317.969 142.439 317.733 141.899C317.507 141.358 317.192 140.886 316.789 140.483C316.386 140.08 315.914 139.766 315.374 139.54C314.833 139.304 314.258 139.186 313.649 139.186H312.439ZM270.976 133.435V135.249H280.104L270.681 153.68V154.58H282.581V152.766H273.159L282.581 134.349V133.435H270.976ZM304.521 139.186C303.784 139.186 303.101 139.353 302.472 139.687C301.852 140.011 301.336 140.454 300.924 141.014L299.936 139.481H299.331V154.58H301.145V143.83C301.145 143.467 301.214 143.128 301.351 142.813C301.489 142.489 301.676 142.208 301.911 141.973C302.147 141.737 302.423 141.55 302.737 141.412C303.062 141.275 303.406 141.206 303.769 141.206H305.583V139.186H304.521Z" fill="url(#paint11_linear_180_1060)"/>
<defs>
<linearGradient id="paint0_linear_180_1060" x1="-2.30842" y1="106.766" x2="350" y2="10.3008" gradientUnits="userSpaceOnUse">
<stop stop-color="#1C2FAF"/>
<stop offset="0.75" stop-color="#3573CF"/>
<stop offset="1" stop-color="#6BB6E4"/>
</linearGradient>
<linearGradient id="paint1_linear_180_1060" x1="-2.30842" y1="106.766" x2="350" y2="10.3008" gradientUnits="userSpaceOnUse">
<stop stop-color="#1C2FAF"/>
<stop offset="0.75" stop-color="#3573CF"/>
<stop offset="1" stop-color="#6BB6E4"/>
</linearGradient>
<linearGradient id="paint2_linear_180_1060" x1="-2.30842" y1="106.766" x2="350" y2="10.3008" gradientUnits="userSpaceOnUse">
<stop stop-color="#1C2FAF"/>
<stop offset="0.75" stop-color="#3573CF"/>
<stop offset="1" stop-color="#6BB6E4"/>
</linearGradient>
<linearGradient id="paint3_linear_180_1060" x1="-2.30842" y1="106.766" x2="350" y2="10.3008" gradientUnits="userSpaceOnUse">
<stop stop-color="#1C2FAF"/>
<stop offset="0.75" stop-color="#3573CF"/>
<stop offset="1" stop-color="#6BB6E4"/>
</linearGradient>
<linearGradient id="paint4_linear_180_1060" x1="-2.30842" y1="106.766" x2="350" y2="10.3008" gradientUnits="userSpaceOnUse">
<stop stop-color="#1C2FAF"/>
<stop offset="0.75" stop-color="#3573CF"/>
<stop offset="1" stop-color="#6BB6E4"/>
</linearGradient>
<linearGradient id="paint5_linear_180_1060" x1="-2.30842" y1="106.766" x2="350" y2="10.3008" gradientUnits="userSpaceOnUse">
<stop stop-color="#1C2FAF"/>
<stop offset="0.75" stop-color="#3573CF"/>
<stop offset="1" stop-color="#6BB6E4"/>
</linearGradient>
<linearGradient id="paint6_linear_180_1060" x1="204.883" y1="123.543" x2="350" y2="183.1" gradientUnits="userSpaceOnUse">
<stop stop-color="#82CE48"/>
<stop offset="0.249955" stop-color="#69A230"/>
<stop offset="1" stop-color="#547029"/>
</linearGradient>
<linearGradient id="paint7_linear_180_1060" x1="350" y1="123.543" x2="236.263" y2="145.884" gradientUnits="userSpaceOnUse">
<stop stop-color="#8DA3C0"/>
<stop offset="0.5" stop-color="#B6C5DA"/>
<stop offset="1" stop-color="#DBE1E9"/>
</linearGradient>
<linearGradient id="paint8_linear_180_1060" x1="204.883" y1="123.543" x2="350" y2="183.1" gradientUnits="userSpaceOnUse">
<stop stop-color="#82CE48"/>
<stop offset="0.249955" stop-color="#69A230"/>
<stop offset="1" stop-color="#547029"/>
</linearGradient>
<linearGradient id="paint9_linear_180_1060" x1="350" y1="123.543" x2="236.263" y2="145.884" gradientUnits="userSpaceOnUse">
<stop stop-color="#8DA3C0"/>
<stop offset="0.5" stop-color="#B6C5DA"/>
<stop offset="1" stop-color="#DBE1E9"/>
</linearGradient>
<linearGradient id="paint10_linear_180_1060" x1="204.883" y1="123.543" x2="350" y2="183.1" gradientUnits="userSpaceOnUse">
<stop stop-color="#82CE48"/>
<stop offset="0.249955" stop-color="#69A230"/>
<stop offset="1" stop-color="#547029"/>
</linearGradient>
<linearGradient id="paint11_linear_180_1060" x1="350" y1="123.543" x2="236.263" y2="145.884" gradientUnits="userSpaceOnUse">
<stop stop-color="#8DA3C0"/>
<stop offset="0.5" stop-color="#B6C5DA"/>
<stop offset="1" stop-color="#DBE1E9"/>
</linearGradient>
</defs>
</svg>
