<svg width="350" height="166" viewBox="0 0 350 166" fill="none" xmlns="http://www.w3.org/2000/svg">
<path d="M0 13.1294L41.5523 11.8308C54.4412 11.8308 64.204 15.1493 70.8409 21.7861C77.5739 28.4229 80.9404 38.33 80.9404 51.5075C80.9404 64.5888 77.4296 76.5639 70.408 87.4329C63.3865 98.3019 53.8641 105.468 41.8408 108.93C34.9154 108.93 27.1725 107.103 18.612 103.448C16.9768 105.949 15.8707 108.113 15.2935 109.94L12.2637 109.219C14.5722 98.7347 15.7264 83.345 15.7264 63.0498C15.7264 42.7546 15.1974 28.0863 14.1393 19.0448C9.52239 17.5058 4.80929 16.7363 0 16.7363V13.1294ZM62.0398 30.5871C59.9238 26.3549 56.8939 23.0846 52.9503 20.7761C49.1029 18.3715 44.8707 17.1692 40.2538 17.1692C35.6368 17.1692 31.597 17.7944 28.1343 19.0448C27.2687 28.0863 26.8358 40.8309 26.8358 57.2786C26.8358 73.6302 27.0763 86.0382 27.5572 94.5025C32.7513 97.1957 38.6667 98.5424 45.3035 98.5424C51.9403 98.5424 57.0863 96.9072 60.7413 93.6369C65.6468 84.6916 68.0996 73.6783 68.0996 60.597C68.0996 48.67 66.0797 38.6667 62.0398 30.5871Z" fill="url(#paint0_linear_180_1063)"/>
<path d="M110.826 67.2339V79.3533C110.826 89.7413 111.163 97.4362 111.836 102.438C114.529 103.015 117.559 103.929 120.926 105.179L120.637 107.92C115.251 107.151 110.153 106.766 105.344 106.766C100.534 106.766 95.6771 107.055 90.7716 107.632L90.3388 104.891C93.2243 103.64 96.0618 102.678 98.8512 102.005C99.7169 95.4644 100.15 87.9138 100.15 79.3533V67.2339C100.15 59.4428 99.765 51.6518 98.9955 43.8607C96.4946 43.0912 93.8976 42.7065 91.2044 42.7065V39.6766C98.6107 39.1957 105.44 38.2339 111.692 36.7911L112.702 37.3682C111.452 44.7745 110.826 54.7297 110.826 67.2339ZM113.423 17.3134C112.75 18.5639 111.548 20.1509 109.816 22.0746C108.181 23.9984 106.787 25.345 105.632 26.1144C104.478 25.345 103.035 23.9984 101.304 22.0746C99.6688 20.1509 98.5145 18.5639 97.8412 17.3134C98.4184 16.1592 99.5245 14.8607 101.16 13.4179C102.795 11.8789 104.286 10.7728 105.632 10.0995C106.883 10.869 108.325 12.0232 109.961 13.5622C111.596 15.005 112.75 16.2554 113.423 17.3134Z" fill="url(#paint1_linear_180_1063)"/>
<path d="M128.444 81.3732C128.444 71.3699 131.137 62.2322 136.524 53.9602C141.91 45.5921 149.124 39.869 158.166 36.7911C164.61 36.7911 171.343 37.801 178.365 39.8209C179.711 37.801 180.817 35.2521 181.683 32.1741L184.713 33.0398C182.597 41.6965 181.539 56.9901 181.539 78.9204C181.539 88.7314 181.875 96.4263 182.549 102.005C184.857 102.775 187.454 103.159 190.34 103.159V106.189C184.184 106.478 177.691 107.391 170.862 108.93L169.852 108.353C170.91 101.716 171.439 94.214 171.439 85.8458L170.862 85.7015C167.496 90.5108 163.504 95.1759 158.887 99.6966C154.27 104.217 149.894 107.295 145.758 108.93C140.467 108.93 136.235 105.997 133.061 100.129C129.983 94.2621 128.444 88.01 128.444 81.3732ZM139.986 74.8806C139.986 79.5938 140.804 84.4992 142.439 89.5971C144.17 94.5987 146.623 97.0996 149.797 97.0996C153.164 97.0996 157.252 94.6949 162.061 89.8856C166.87 85.0763 169.996 80.748 171.439 76.9005C171.439 62.5689 171.103 53.335 170.429 49.199C165.331 46.8906 160.378 45.7363 155.569 45.7363C150.855 45.7363 147.248 46.8906 144.748 49.199C141.573 56.5092 139.986 65.0697 139.986 74.8806Z" fill="url(#paint2_linear_180_1063)"/>
<path d="M239.924 64.3483C239.924 74.3516 237.231 83.5374 231.845 91.9055C226.458 100.178 219.244 105.852 210.203 108.93C200.969 108.93 192.553 107.199 184.954 103.736C186.204 92.5788 186.83 74.9287 186.83 50.7861C186.83 26.6435 185.675 10.0033 183.367 0.86567L186.397 0C187.262 3.07795 188.369 5.62687 189.715 7.64677C195.005 6.78109 200.151 5.62687 205.153 4.18408L205.874 6.7811C204.047 8.22388 201.787 9.61858 199.093 10.9652C197.651 18.8524 196.929 35.1559 196.929 59.8757L197.506 60.0199C200.873 55.2106 204.865 50.5456 209.481 46.0249C214.098 41.5042 218.475 38.4262 222.611 36.7911C227.901 36.7911 232.085 39.7247 235.163 45.5921C238.337 51.4594 239.924 57.7115 239.924 64.3483ZM228.382 70.8408C228.382 66.1277 227.516 61.2704 225.785 56.2687C224.15 51.1708 221.745 48.6219 218.571 48.6219C215.204 48.6219 211.117 51.0266 206.307 55.8359C201.498 60.6451 198.372 64.9735 196.929 68.8209C196.929 83.1526 197.266 92.3865 197.939 96.5224C203.037 98.8309 207.942 99.9851 212.656 99.9851C217.465 99.9851 221.12 98.8309 223.621 96.5224C226.795 89.2123 228.382 80.6518 228.382 70.8408Z" fill="url(#paint3_linear_180_1063)"/>
<path d="M267.011 73.5821C267.011 76.3715 267.011 80.7961 267.011 86.8558C267.011 92.8193 267.3 98.0133 267.877 102.438C270.57 103.015 273.6 103.929 276.967 105.179L276.678 107.92C271.292 107.151 266.194 106.766 261.385 106.766C256.575 106.766 251.718 107.055 246.812 107.632L246.38 104.891C249.265 103.64 252.103 102.678 254.892 102.005C255.758 95.8492 256.239 86.3748 256.335 73.5821L256.623 46.602C256.623 44.1012 256.623 39.6285 256.623 33.1841C256.623 26.6435 256.287 19.9586 255.613 13.1294C253.113 12.3599 250.516 11.9751 247.822 11.9751V8.94528C257.441 8.27197 266.627 6.68491 275.38 4.18408L276.101 6.7811C274.273 8.22388 272.013 9.61858 269.32 10.9652C268.166 17.3134 267.492 29.1924 267.3 46.602L267.011 73.5821Z" fill="url(#paint4_linear_180_1063)"/>
<path d="M314.746 108.93C306.378 108.93 299.501 106.141 294.114 100.562C288.728 94.8873 286.035 87.481 286.035 78.3433C286.035 69.2057 288.776 60.597 294.259 52.5174C299.837 44.3417 307.148 39.0995 316.189 36.7911C325.134 36.7911 331.915 39.3881 336.532 44.5821C341.149 49.7761 343.458 56.942 343.458 66.0796C343.458 75.2173 340.765 83.8259 335.378 91.9055C329.992 99.9851 323.114 105.66 314.746 108.93ZM312.294 45.7363C308.254 45.7363 304.935 46.8906 302.338 49.199C299.164 55.2587 297.577 62.2322 297.577 70.1194C297.577 78.0067 299.357 84.9801 302.915 91.0399C306.474 97.0034 311.235 99.9851 317.199 99.9851C321.239 99.9851 324.605 98.7828 327.298 96.3782C330.376 90.5108 331.915 83.3931 331.915 75.0249C331.915 66.5606 330.28 59.5871 327.01 54.1045C323.836 48.5257 318.93 45.7363 312.294 45.7363Z" fill="url(#paint5_linear_180_1063)"/>
<path fill-rule="evenodd" clip-rule="evenodd" d="M337.418 123.543C344.367 123.543 350 129.176 350 136.125V152.902C350 159.851 344.367 165.484 337.418 165.484H235.08C228.131 165.484 222.498 159.851 222.498 152.902V136.125C222.498 129.176 228.131 123.543 235.08 123.543H337.418ZM277.263 139.481V150.436C277.263 151.046 277.376 151.621 277.602 152.161C277.838 152.702 278.157 153.174 278.56 153.577C278.963 153.98 279.435 154.299 279.976 154.535C280.516 154.761 281.091 154.874 281.701 154.874H282.158C282.895 154.874 283.574 154.712 284.193 154.388C284.812 154.054 285.328 153.606 285.741 153.046L286.744 154.58H287.348V139.481H285.535V150.539C285.535 150.903 285.466 151.247 285.328 151.572C285.191 151.886 285.004 152.161 284.768 152.397C284.532 152.633 284.252 152.82 283.927 152.958C283.613 153.095 283.274 153.164 282.91 153.164H281.701C281.337 153.164 280.993 153.095 280.669 152.958C280.354 152.82 280.079 152.633 279.843 152.397C279.607 152.161 279.42 151.886 279.283 151.572C279.145 151.247 279.076 150.903 279.076 150.539V139.481H277.263ZM312.872 139.186C312.262 139.186 311.687 139.289 311.147 139.495C310.616 139.692 310.149 139.972 309.746 140.336C309.343 140.7 309.023 141.137 308.788 141.648C308.552 142.149 308.434 142.705 308.434 143.314C308.434 144.032 308.552 144.632 308.788 145.113C309.023 145.595 309.333 145.998 309.717 146.322C310.11 146.637 310.552 146.892 311.044 147.089C311.545 147.286 312.056 147.463 312.577 147.62C313.098 147.767 313.604 147.92 314.096 148.077C314.597 148.224 315.039 148.416 315.423 148.652C315.816 148.878 316.131 149.163 316.367 149.507C316.602 149.851 316.72 150.294 316.72 150.834C316.72 151.198 316.642 151.522 316.484 151.807C316.337 152.093 316.131 152.338 315.865 152.545C315.61 152.741 315.315 152.894 314.98 153.002C314.646 153.11 314.297 153.164 313.934 153.164H312.725C312.361 153.164 312.012 153.095 311.678 152.958C311.343 152.82 311.048 152.633 310.793 152.397C310.537 152.161 310.331 151.886 310.174 151.572C310.026 151.247 309.952 150.903 309.952 150.539V149.537L308.139 149.832V150.436C308.139 151.046 308.262 151.621 308.507 152.161C308.763 152.702 309.097 153.174 309.51 153.577C309.933 153.98 310.419 154.299 310.97 154.535C311.53 154.761 312.115 154.874 312.725 154.874H313.934C314.543 154.874 315.123 154.776 315.674 154.58C316.234 154.373 316.725 154.088 317.148 153.724C317.571 153.361 317.905 152.928 318.151 152.427C318.396 151.916 318.519 151.355 318.519 150.746C318.519 150.028 318.401 149.429 318.165 148.947C317.93 148.455 317.615 148.047 317.222 147.723C316.838 147.399 316.396 147.133 315.895 146.927C315.403 146.72 314.897 146.539 314.376 146.381C313.865 146.214 313.359 146.057 312.857 145.909C312.366 145.752 311.923 145.56 311.53 145.334C311.147 145.108 310.837 144.833 310.601 144.509C310.365 144.174 310.247 143.747 310.247 143.226C310.247 142.862 310.316 142.538 310.454 142.253C310.591 141.968 310.778 141.727 311.014 141.53C311.25 141.324 311.525 141.166 311.84 141.058C312.164 140.95 312.508 140.896 312.872 140.896H313.934C314.297 140.896 314.636 140.965 314.951 141.103C315.275 141.24 315.556 141.427 315.791 141.663C316.027 141.899 316.214 142.179 316.352 142.503C316.489 142.818 316.558 143.157 316.558 143.521V143.978L318.372 143.683V143.624C318.372 143.014 318.254 142.439 318.018 141.899C317.792 141.358 317.477 140.886 317.074 140.483C316.671 140.08 316.199 139.766 315.659 139.54C315.118 139.304 314.543 139.186 313.934 139.186H312.872ZM254.275 133.435V154.58H256.177V144.922H264.272V143.108H256.177V135.249H266.174V133.435H254.275ZM273.783 139.186C273.046 139.186 272.362 139.353 271.733 139.687C271.114 140.011 270.598 140.454 270.185 141.014L269.197 139.481H268.593V154.58H270.406V143.83C270.406 143.467 270.475 143.128 270.613 142.813C270.75 142.489 270.937 142.208 271.173 141.973C271.409 141.737 271.684 141.55 271.999 141.412C272.323 141.275 272.667 141.206 273.031 141.206H274.844V139.186H273.783ZM291.58 139.481V154.58H293.394V139.481H291.58ZM299.144 135.853V139.481H296.431V141.206H299.144V150.598C299.144 151.149 299.248 151.665 299.454 152.147C299.67 152.628 299.955 153.051 300.309 153.415C300.673 153.778 301.096 154.063 301.577 154.27C302.069 154.476 302.59 154.58 303.14 154.58H304.792V152.854H303.14C302.836 152.854 302.55 152.8 302.285 152.692C302.02 152.574 301.789 152.417 301.592 152.22C301.395 152.024 301.238 151.798 301.12 151.542C301.012 151.277 300.958 150.992 300.958 150.687V141.206H304.792V139.481H300.958V135.558L299.144 135.853ZM291.433 133.435V135.853H293.541V133.435H291.433Z" fill="url(#paint6_linear_180_1063)"/>
<path fill-rule="evenodd" clip-rule="evenodd" d="M337.418 123.543C344.367 123.543 350 129.176 350 136.125V152.902C350 159.851 344.367 165.484 337.418 165.484H235.08C228.131 165.484 222.498 159.851 222.498 152.902V136.125C222.498 129.176 228.131 123.543 235.08 123.543H337.418ZM277.263 139.481V150.436C277.263 151.046 277.376 151.621 277.602 152.161C277.838 152.702 278.157 153.174 278.56 153.577C278.963 153.98 279.435 154.299 279.976 154.535C280.516 154.761 281.091 154.874 281.701 154.874H282.158C282.895 154.874 283.574 154.712 284.193 154.388C284.812 154.054 285.328 153.606 285.741 153.046L286.744 154.58H287.348V139.481H285.535V150.539C285.535 150.903 285.466 151.247 285.328 151.572C285.191 151.886 285.004 152.161 284.768 152.397C284.532 152.633 284.252 152.82 283.927 152.958C283.613 153.095 283.274 153.164 282.91 153.164H281.701C281.337 153.164 280.993 153.095 280.669 152.958C280.354 152.82 280.079 152.633 279.843 152.397C279.607 152.161 279.42 151.886 279.283 151.572C279.145 151.247 279.076 150.903 279.076 150.539V139.481H277.263ZM312.872 139.186C312.262 139.186 311.687 139.289 311.147 139.495C310.616 139.692 310.149 139.972 309.746 140.336C309.343 140.7 309.023 141.137 308.788 141.648C308.552 142.149 308.434 142.705 308.434 143.314C308.434 144.032 308.552 144.632 308.788 145.113C309.023 145.595 309.333 145.998 309.717 146.322C310.11 146.637 310.552 146.892 311.044 147.089C311.545 147.286 312.056 147.463 312.577 147.62C313.098 147.767 313.604 147.92 314.096 148.077C314.597 148.224 315.039 148.416 315.423 148.652C315.816 148.878 316.131 149.163 316.367 149.507C316.602 149.851 316.72 150.294 316.72 150.834C316.72 151.198 316.642 151.522 316.484 151.807C316.337 152.093 316.131 152.338 315.865 152.545C315.61 152.741 315.315 152.894 314.98 153.002C314.646 153.11 314.297 153.164 313.934 153.164H312.725C312.361 153.164 312.012 153.095 311.678 152.958C311.343 152.82 311.048 152.633 310.793 152.397C310.537 152.161 310.331 151.886 310.174 151.572C310.026 151.247 309.952 150.903 309.952 150.539V149.537L308.139 149.832V150.436C308.139 151.046 308.262 151.621 308.507 152.161C308.763 152.702 309.097 153.174 309.51 153.577C309.933 153.98 310.419 154.299 310.97 154.535C311.53 154.761 312.115 154.874 312.725 154.874H313.934C314.543 154.874 315.123 154.776 315.674 154.58C316.234 154.373 316.725 154.088 317.148 153.724C317.571 153.361 317.905 152.928 318.151 152.427C318.396 151.916 318.519 151.355 318.519 150.746C318.519 150.028 318.401 149.429 318.165 148.947C317.93 148.455 317.615 148.047 317.222 147.723C316.838 147.399 316.396 147.133 315.895 146.927C315.403 146.72 314.897 146.539 314.376 146.381C313.865 146.214 313.359 146.057 312.857 145.909C312.366 145.752 311.923 145.56 311.53 145.334C311.147 145.108 310.837 144.833 310.601 144.509C310.365 144.174 310.247 143.747 310.247 143.226C310.247 142.862 310.316 142.538 310.454 142.253C310.591 141.968 310.778 141.727 311.014 141.53C311.25 141.324 311.525 141.166 311.84 141.058C312.164 140.95 312.508 140.896 312.872 140.896H313.934C314.297 140.896 314.636 140.965 314.951 141.103C315.275 141.24 315.556 141.427 315.791 141.663C316.027 141.899 316.214 142.179 316.352 142.503C316.489 142.818 316.558 143.157 316.558 143.521V143.978L318.372 143.683V143.624C318.372 143.014 318.254 142.439 318.018 141.899C317.792 141.358 317.477 140.886 317.074 140.483C316.671 140.08 316.199 139.766 315.659 139.54C315.118 139.304 314.543 139.186 313.934 139.186H312.872ZM254.275 133.435V154.58H256.177V144.922H264.272V143.108H256.177V135.249H266.174V133.435H254.275ZM273.783 139.186C273.046 139.186 272.362 139.353 271.733 139.687C271.114 140.011 270.598 140.454 270.185 141.014L269.197 139.481H268.593V154.58H270.406V143.83C270.406 143.467 270.475 143.128 270.613 142.813C270.75 142.489 270.937 142.208 271.173 141.973C271.409 141.737 271.684 141.55 271.999 141.412C272.323 141.275 272.667 141.206 273.031 141.206H274.844V139.186H273.783ZM291.58 139.481V154.58H293.394V139.481H291.58ZM299.144 135.853V139.481H296.431V141.206H299.144V150.598C299.144 151.149 299.248 151.665 299.454 152.147C299.67 152.628 299.955 153.051 300.309 153.415C300.673 153.778 301.096 154.063 301.577 154.27C302.069 154.476 302.59 154.58 303.14 154.58H304.792V152.854H303.14C302.836 152.854 302.55 152.8 302.285 152.692C302.02 152.574 301.789 152.417 301.592 152.22C301.395 152.024 301.238 151.798 301.12 151.542C301.012 151.277 300.958 150.992 300.958 150.687V141.206H304.792V139.481H300.958V135.558L299.144 135.853ZM291.433 133.435V135.853H293.541V133.435H291.433Z" fill="url(#paint7_linear_180_1063)"/>
<defs>
<linearGradient id="paint0_linear_180_1063" x1="-2.30842" y1="106.766" x2="345.386" y2="10.3008" gradientUnits="userSpaceOnUse">
<stop stop-color="#A32414"/>
<stop offset="0.75" stop-color="#DB5D19"/>
<stop offset="1" stop-color="#FA943A"/>
</linearGradient>
<linearGradient id="paint1_linear_180_1063" x1="-2.30842" y1="106.766" x2="345.386" y2="10.3008" gradientUnits="userSpaceOnUse">
<stop stop-color="#A32414"/>
<stop offset="0.75" stop-color="#DB5D19"/>
<stop offset="1" stop-color="#FA943A"/>
</linearGradient>
<linearGradient id="paint2_linear_180_1063" x1="-2.30842" y1="106.766" x2="345.386" y2="10.3008" gradientUnits="userSpaceOnUse">
<stop stop-color="#A32414"/>
<stop offset="0.75" stop-color="#DB5D19"/>
<stop offset="1" stop-color="#FA943A"/>
</linearGradient>
<linearGradient id="paint3_linear_180_1063" x1="-2.30842" y1="106.766" x2="345.386" y2="10.3008" gradientUnits="userSpaceOnUse">
<stop stop-color="#A32414"/>
<stop offset="0.75" stop-color="#DB5D19"/>
<stop offset="1" stop-color="#FA943A"/>
</linearGradient>
<linearGradient id="paint4_linear_180_1063" x1="-2.30842" y1="106.766" x2="345.386" y2="10.3008" gradientUnits="userSpaceOnUse">
<stop stop-color="#A32414"/>
<stop offset="0.75" stop-color="#DB5D19"/>
<stop offset="1" stop-color="#FA943A"/>
</linearGradient>
<linearGradient id="paint5_linear_180_1063" x1="-2.30842" y1="106.766" x2="345.386" y2="10.3008" gradientUnits="userSpaceOnUse">
<stop stop-color="#A32414"/>
<stop offset="0.75" stop-color="#DB5D19"/>
<stop offset="1" stop-color="#FA943A"/>
</linearGradient>
<linearGradient id="paint6_linear_180_1063" x1="204.883" y1="123.543" x2="350" y2="183.1" gradientUnits="userSpaceOnUse">
<stop stop-color="#82CE48"/>
<stop offset="0.249955" stop-color="#69A230"/>
<stop offset="1" stop-color="#547029"/>
</linearGradient>
<linearGradient id="paint7_linear_180_1063" x1="350" y1="123.543" x2="219.707" y2="153.238" gradientUnits="userSpaceOnUse">
<stop stop-color="#163A1C"/>
<stop offset="0.5" stop-color="#277227"/>
<stop offset="1" stop-color="#317C3C"/>
</linearGradient>
</defs>
</svg>
