<svg width="20" height="20" viewBox="0 0 20 20" fill="none" xmlns="http://www.w3.org/2000/svg">
<path d="M5.64537 0C6.87196 3.15855e-06 7.97497 0.746729 8.43062 1.88555L9.48595 4.52171C9.89547 5.54564 9.70914 6.71067 9.0043 7.55649L9.00409 7.55673L8.43692 8.23685L8.43695 8.23688C8.10652 8.63338 8.13268 9.2175 8.49914 9.58401L10.4151 11.5017L10.4323 11.5186C10.7987 11.8679 11.3717 11.8886 11.763 11.5625L12.4434 10.995C13.2901 10.2894 14.455 10.1053 15.4778 10.5144L18.1142 11.5686L18.1144 11.5686C19.2533 12.0243 20 13.1272 20 14.354L19.9995 17.1054C19.9994 18.7038 18.7039 20 17.1051 20C7.65832 20 6.06141e-06 12.3415 0 2.89453C0 1.29568 1.29612 0 2.89467 0H5.64537ZM1.99993 2.89453C1.99994 11.2369 8.76286 18 17.1051 18C17.599 18 17.9996 17.5995 17.9996 17.1052L18.0001 14.354L17.9999 14.3349C17.9922 13.9337 17.7454 13.5752 17.3717 13.4256L14.7353 12.3714L14.7352 12.3714C14.394 12.2349 14.0058 12.2964 13.7237 12.5315L13.7237 12.5314L13.0437 13.0986L13.0434 13.0989C11.8517 14.092 10.0982 14.0133 9.00087 12.9159L7.08461 10.9979C5.98854 9.90138 5.90668 8.14909 6.90057 6.95646L6.90077 6.95626L7.46809 6.27587C7.70359 5.99309 7.76501 5.60478 7.62913 5.26474L6.57392 2.62887L6.57383 2.62861C6.42196 2.24894 6.05426 1.99999 5.64537 1.99998H2.89467C2.40038 1.99998 1.99993 2.40053 1.99993 2.89453Z" fill="#F2E0E0"/>
</svg>
