<svg width="17" height="15" viewBox="0 0 17 15" fill="none" xmlns="http://www.w3.org/2000/svg">
<path d="M17 2.61126V12.3901C17 14.3929 14.898 15.6497 13.2204 14.6483L9.12498 12.2062L5.02956 9.7538C3.35192 8.75242 3.35192 6.24897 5.02956 5.24755L9.12498 2.79519L13.2204 0.353046C14.898 -0.648336 17 0.598282 17 2.61126Z" fill="#D2C3C3"/>
<path d="M0.740135 14.5775C1.14474 14.5775 1.48027 14.2301 1.48027 13.8111V1.18147C1.48027 0.762529 1.14474 0.415111 0.740135 0.415111C0.335528 0.415111 -4.95565e-07 0.762529 -4.95565e-07 1.18147V13.8111C-4.95565e-07 14.2301 0.325659 14.5775 0.740135 14.5775Z" fill="#D2C3C3"/>
</svg>
