<svg width="34" height="38" viewBox="0 0 34 38" fill="none" xmlns="http://www.w3.org/2000/svg">
    <path fill-rule="evenodd" clip-rule="evenodd"
        d="M28 30.6064C28 31.74 27.9996 32.5316 27.9492 33.1475C27.8999 33.7504 27.808 34.0979 27.6738 34.3613C27.3865 34.9253 26.9258 35.3862 26.3613 35.6738C26.0985 35.8064 25.7445 35.9003 25.1465 35.9492C24.5308 35.9995 23.7398 36 22.6064 36H11.3936C10.2602 36 9.46865 35.9995 8.85254 35.9492C8.32426 35.906 7.9916 35.83 7.74023 35.7217L7.6377 35.6738L7.60645 35.6582L7.57715 35.6396C7.04203 35.351 6.6046 34.9058 6.32715 34.3613L6.32031 34.3477L6.31055 34.3281L6.30469 34.3154C6.18108 34.0542 6.09686 33.7092 6.05078 33.1455C6.00037 32.5287 6 31.7356 6 30.5996V8H28V30.6064ZM4 8H1C0.44772 8 5.72205e-06 7.55228 0 7C0 6.44771 0.447716 6 1 6H7.98145L8.02344 5.04395C8.02812 4.93836 8.03356 4.83804 8.04004 4.74317C8.08156 4.13501 8.1697 3.5967 8.38086 3.08692C8.88816 1.86239 9.86056 0.888501 11.0859 0.380861C11.5959 0.16964 12.1347 0.0815442 12.7432 0.0400406C13.3307 -3.12403e-05 14.0519 -1.69367e-05 14.9435 8.25439e-07L15 1.54069e-06H19L19.0573 7.65834e-07C19.9486 -1.7354e-05 20.6695 -3.20151e-05 21.2568 0.0400406C21.865 0.0815453 22.4032 0.169725 22.9131 0.380861C24.119 0.880433 25.0809 1.83161 25.5947 3.0293L25.6191 3.08692C25.8302 3.59663 25.9184 4.13496 25.96 4.74317C25.9664 4.83791 25.9719 4.93811 25.9766 5.04395L26.0186 6H33C33.5523 6.00002 34 6.44777 34 7C34 7.55223 33.5523 7.99998 33 8H30V30.6064V30.6582C30 31.735 30 32.6056 29.9424 33.3105C29.8829 34.0377 29.7565 34.6768 29.4551 35.2686C28.9757 36.2096 28.2091 36.9759 27.2686 37.4551C26.6766 37.7567 26.0369 37.8829 25.3096 37.9424C24.6044 38 23.734 38 22.6567 38H22.6064H11.3936H11.3427C10.2655 38 9.39484 38 8.68945 37.9424C8.05279 37.8903 7.48316 37.7875 6.9541 37.5605L6.72949 37.4551C5.78794 36.9754 5.02377 36.2092 4.54492 35.2695C4.24309 34.6772 4.11716 34.0369 4.05762 33.3086C3.99997 32.6032 3.99998 31.7317 4 30.6539L4 30.5996V8ZM22 29V15C22 14.4478 21.5523 14 21 14C20.4477 14 20 14.4477 20 15V29C20 29.5523 20.4477 30 21 30C21.5523 30 22 29.5522 22 29ZM14 15V29C14 29.5523 13.5523 30 13 30C12.4477 30 12 29.5523 12 29V15C12 14.4477 12.4477 14 13 14C13.5523 14 14 14.4477 14 15ZM19 2C19.9448 2 20.6042 2.00095 21.1201 2.03613C21.6254 2.07061 21.9224 2.13498 22.1484 2.22852C22.7911 2.49488 23.3187 2.97546 23.6445 3.58399L23.7715 3.85156C23.8651 4.07764 23.9293 4.37435 23.9639 4.87988L23.9678 4.9375L24.0342 6H9.96582L10.0322 4.93848L10.0361 4.87988C10.0706 4.37428 10.1349 4.07857 10.2285 3.85254L10.2324 3.8418L10.2529 3.7959L10.2578 3.78418C10.5698 3.08083 11.14 2.52328 11.8516 2.22852L12.0361 2.16406C12.2383 2.10481 12.4994 2.06203 12.8789 2.03613C13.3951 2.00093 14.055 2 15 2H19Z"
        fill="#FDEAEA" />
</svg>