<svg width="26" height="30" viewBox="0 0 26 30" fill="none" xmlns="http://www.w3.org/2000/svg">
    <path fill-rule="evenodd" clip-rule="evenodd"
        d="M2 0H7.3621e-07V22.6539C-1.9291e-05 23.7317 -2.93031e-05 24.6032 0.0576208 25.3086C0.117161 26.0369 0.243091 26.6772 0.544921 27.2695C1.02377 28.2092 1.78794 28.9754 2.72949 29.4551L2.9541 29.5605C3.48316 29.7875 4.05279 29.8903 4.68945 29.9424C5.39484 30 6.2655 30 7.3427 30H18.6567C19.734 30 20.6044 30 21.3096 29.9424C22.0369 29.8829 22.6766 29.7567 23.2686 29.4551C24.2091 28.9759 24.9757 28.2096 25.4551 27.2686C25.7565 26.6768 25.8829 26.0377 25.9424 25.3105C26 24.6056 26 23.735 26 22.6582V0H24V22.6064C24 23.74 23.9996 24.5316 23.9492 25.1475C23.8999 25.7504 23.808 26.0979 23.6738 26.3613C23.3865 26.9253 22.9258 27.3862 22.3613 27.6738C22.0985 27.8064 21.7445 27.9003 21.1465 27.9492C20.5308 27.9995 19.7398 28 18.6064 28H7.3936C6.2602 28 5.46865 27.9995 4.85254 27.9492C4.32426 27.906 3.9916 27.83 3.74023 27.7217L3.6377 27.6738L3.60645 27.6582L3.57715 27.6396C3.04203 27.351 2.6046 26.9058 2.32715 26.3613L2.32031 26.3477L2.31055 26.3281L2.30469 26.3154C2.18108 26.0542 2.09686 25.7092 2.05078 25.1455C2.00037 24.5287 2 23.7356 2 22.5996V0ZM17 6C17.5523 6 18 6.4478 18 7V21C18 21.5522 17.5523 22 17 22C16.4477 22 16 21.5523 16 21V7C16 6.4477 16.4477 6 17 6ZM9 22C9.5523 22 10 21.5523 10 21V7C10 6.4477 9.5523 6 9 6C8.4477 6 8 6.4477 8 7V21C8 21.5523 8.4477 22 9 22Z"
        fill="#FDEAEA" />
</svg>