<svg width="34" height="8" viewBox="0 0 34 8" fill="none" xmlns="http://www.w3.org/2000/svg">
    <path fill-rule="evenodd" clip-rule="evenodd"
        d="M28 8H30H33C33.5523 7.99998 34 7.55223 34 7C34 6.44777 33.5523 6.00002 33 6H26.0186L25.9766 5.04395C25.9719 4.93811 25.9664 4.83791 25.96 4.74317C25.9184 4.13496 25.8302 3.59663 25.6191 3.08692L25.5947 3.0293C25.0809 1.83161 24.119 0.880434 22.9131 0.380862C22.4032 0.169726 21.865 0.081546 21.2568 0.0400413C20.6695 -3.06703e-05 19.9486 -1.66365e-05 19.0573 7.17924e-07H14.9435C14.0519 -1.62192e-05 13.3307 -2.99178e-05 12.7432 0.0400413C12.1347 0.0815449 11.5959 0.169641 11.0859 0.380862C9.86056 0.888502 8.88816 1.86239 8.38086 3.08692C8.1697 3.5967 8.08156 4.13501 8.04004 4.74317C8.03356 4.83804 8.02812 4.93836 8.02344 5.04395L7.98145 6H1C0.447716 6 0 6.44771 0 7C5.72205e-06 7.55228 0.44772 8 1 8H4H6H28ZM21.1201 2.03613C20.6042 2.00095 19.9448 2 19 2H15C14.055 2 13.3951 2.00093 12.8789 2.03613C12.4994 2.06203 12.2383 2.10481 12.0361 2.16406L11.8516 2.22852C11.14 2.52328 10.5698 3.08083 10.2578 3.78418L10.2529 3.7959L10.2324 3.8418L10.2285 3.85254C10.1349 4.07857 10.0706 4.37428 10.0361 4.87988L10.0322 4.93848L9.96582 6H24.0342L23.9678 4.9375L23.9639 4.87988C23.9293 4.37435 23.8651 4.07764 23.7715 3.85156L23.6445 3.58399C23.3187 2.97546 22.7911 2.49488 22.1484 2.22852C21.9224 2.13498 21.6254 2.07061 21.1201 2.03613Z"
        fill="#FDEAEA" />
</svg>