<svg width="25" height="25" viewBox="0 0 25 25" fill="none" xmlns="http://www.w3.org/2000/svg">
<path d="M17.5 9.99998C17.5 5.85785 14.1421 2.49998 9.99998 2.49998C5.85786 2.49998 2.49998 5.85786 2.49998 9.99998C2.49998 14.1421 5.85785 17.5 9.99998 17.5C14.1421 17.5 17.5 14.1421 17.5 9.99998ZM20 9.99998C20 12.3109 19.2161 14.4386 17.8998 16.132L24.6339 22.8661C25.122 23.3543 25.122 24.1457 24.6339 24.6339C24.1457 25.122 23.3543 25.122 22.8661 24.6339L16.132 17.8998C14.4386 19.2161 12.3109 20 9.99998 20C4.47714 20 0 15.5228 0 9.99998C6.4959e-06 4.47714 4.47714 6.49432e-06 9.99998 0C15.5228 0 20 4.47714 20 9.99998Z" fill="#D2C3C3"/>
</svg>
