<svg width="45" height="80" viewBox="0 0 45 80" fill="none" xmlns="http://www.w3.org/2000/svg">
<path fill-rule="evenodd" clip-rule="evenodd" d="M0.00302513 35.2242L0 35.2261V69.3508L0.00302513 69.3478V35.2242ZM44.997 37.3682L45 37.3667V20.3819L44.997 20.3821V37.3682Z" fill="#FDEAEA"/>
<path fill-rule="evenodd" clip-rule="evenodd" d="M44.9923 73.2577C44.9954 73.1722 44.997 73.0863 44.997 73V42.9828L45 42.9813V72.9254C45 73.0368 44.9974 73.1475 44.9923 73.2577Z" fill="#FDEAEA"/>
<path fill-rule="evenodd" clip-rule="evenodd" d="M44.9923 73.2577C44.818 77.0107 41.7071 80 37.8947 80H37.9667C41.7628 80 44.8561 77.0043 44.9923 73.2577Z" fill="#FDEAEA"/>
<path d="M39.6491 6.91665V5.02092H42.1706V0H2.8296V5.02092H5.35093V6.91665C2.27541 7.69439 0 10.4691 0 13.7736V29.2879L0.00302513 29.286V35.2242V69.3478V73C0.00302513 76.866 3.1506 80 7.03333 80H7.10527H37.8947C41.7071 80 44.818 77.0107 44.9923 73.2577C44.9954 73.1722 44.997 73.0863 44.997 73V42.9828V37.3682V20.3821V17.5C44.997 16.7575 44.8809 16.0421 44.6658 15.3706C44.7334 15.3669 44.801 15.3633 44.8686 15.3598L45 15.353V13.7734C45 10.4691 42.7248 7.69456 39.6491 6.91665Z" fill="#FDEAEA"/>
</svg>
