<svg width="35" height="70" viewBox="0 0 35 70" fill="none" xmlns="http://www.w3.org/2000/svg">
<path fill-rule="evenodd" clip-rule="evenodd" d="M0.00235287 30.8212L0 30.8228V60.6819L0.00235287 60.6793V30.8212ZM34.9976 32.6972L35 32.6959V17.8342L34.9976 17.8343V32.6972Z" fill="#9E9494"/>
<path fill-rule="evenodd" clip-rule="evenodd" d="M34.994 64.1005C34.9964 64.0257 34.9976 63.9505 34.9976 63.875V37.6099L35 37.6086V63.8097C35 63.9072 34.998 64.0041 34.994 64.1005Z" fill="#9E9494"/>
<path fill-rule="evenodd" clip-rule="evenodd" d="M34.994 64.1005C34.8585 67.3843 32.4388 70 29.4737 70H29.5296C32.4821 70 34.8881 67.3788 34.994 64.1005Z" fill="#9E9494"/>
<path d="M30.8382 6.05207V4.39331H32.7993V0H2.2008V4.39331H4.16184V6.05207C1.76977 6.73259 0 9.16048 0 12.0519V25.6269L0.00235287 25.6253V30.8212V60.6793V63.875C0.00235287 67.2577 2.45047 70 5.47037 70H5.52632H29.4737C32.4388 70 34.8585 67.3843 34.994 64.1005C34.9964 64.0257 34.9976 63.9505 34.9976 63.875V37.6099V32.6972V17.8343V15.3125C34.9976 14.6628 34.9073 14.0368 34.7401 13.4493C34.7926 13.4461 34.8452 13.4429 34.8978 13.4399L35 13.4338V12.0517C35 9.16048 33.2304 6.73274 30.8382 6.05207Z" fill="#9E9494"/>
</svg>
