<svg width="50" height="85" viewBox="0 0 50 85" fill="none" xmlns="http://www.w3.org/2000/svg">
<path fill-rule="evenodd" clip-rule="evenodd" d="M0.00336125 37.4257L0 37.4277V73.6852L0.00336125 73.682V37.4257ZM49.9966 39.7037L50 39.7021V21.6558L49.9966 21.656V39.7037Z" fill="#9E9494"/>
<path fill-rule="evenodd" clip-rule="evenodd" d="M49.9914 77.8363C49.9949 77.7454 49.9966 77.6541 49.9966 77.5625V45.6692L50 45.6676V77.4832C50 77.6015 49.9971 77.7193 49.9914 77.8363Z" fill="#9E9494"/>
<path fill-rule="evenodd" clip-rule="evenodd" d="M49.9914 77.8363C49.7978 81.8238 46.3412 85 42.1053 85H42.1852C46.4031 85 49.8402 81.8171 49.9914 77.8363Z" fill="#9E9494"/>
<path d="M44.0545 7.34894V5.33473H46.8562V0H3.144V5.33473H5.94548V7.34894C2.52824 8.17529 0 11.1234 0 14.6344V31.1184L0.00336125 31.1164V37.4257V73.682V77.5625C0.00336125 81.6701 3.50067 85 7.81481 85H7.89475H42.1053C46.3412 85 49.7978 81.8238 49.9914 77.8363C49.9949 77.7454 49.9966 77.6541 49.9966 77.5625V45.6692V39.7037V21.656V18.5937C49.9966 17.8049 49.8676 17.0447 49.6286 16.3313C49.7037 16.3274 49.7788 16.3236 49.8539 16.3198L50 16.3125V14.6342C50 11.1234 47.4719 8.17547 44.0545 7.34894Z" fill="#9E9494"/>
</svg>
