<svg width="50" height="50" viewBox="0 0 50 50" fill="none" xmlns="http://www.w3.org/2000/svg">
<path fill-rule="evenodd" clip-rule="evenodd" d="M25 0C11.1929 0 0 11.1929 0 25C0 38.8071 11.1929 50 25 50C38.8071 50 50 38.8071 50 25C50 11.1929 38.8071 0 25 0ZM34.487 10H39.5495L28.4922 22.7067L41.5 40H31.3175L23.3364 29.5144L14.2151 40H9.14537L20.97 26.4062L8.5 10H18.9407L26.1473 19.5841L34.487 10ZM35.5124 36.9567H32.7086L14.4016 12.8846H17.4133L35.5124 36.9567Z" fill="url(#paint0_linear_133_49)"/>
<defs>
<linearGradient id="paint0_linear_133_49" x1="0.467286" y1="50.5" x2="50.4673" y2="0.500003" gradientUnits="userSpaceOnUse">
<stop stop-color="#6D0815"/>
<stop offset="0.75" stop-color="#DB1933"/>
<stop offset="1" stop-color="#FA3A53"/>
</linearGradient>
</defs>
</svg>
